<?xml version="1.0" encoding="UTF-8" standalone="no"?>
<svg width="193px" height="85px" viewBox="0 0 193 85" version="1.1" xmlns="http://www.w3.org/2000/svg" xmlns:xlink="http://www.w3.org/1999/xlink">
    <!-- Generator: Sketch 3.8.3 (29802) - http://www.bohemiancoding.com/sketch -->
    <title>MoneyCircleLogo</title>
    <desc>Created with Sketch.</desc>
    <defs>
        <polygon id="path-1" points="0.147056558 83.8651434 87.2748589 83.8651434 87.2748589 0.30018492 0.147056558 0.30018492 0.147056558 83.8651434"></polygon>
    </defs>
    <g id="Event-Page" stroke="none" stroke-width="1" fill="none" fill-rule="evenodd">
        <g id="Desktop-HD" transform="translate(-1185.000000, -98.000000)">
            <g id="MoneyCircleLogo" transform="translate(1185.000000, 98.000000)">
                <path d="M181.326376,39.0266445 C180.316952,39.0266445 179.521881,39.3212616 178.930225,39.9202984 C178.328726,40.5089881 178.002277,41.1690177 177.93119,41.8900401 L184.742341,41.8900401 C184.70133,41.1183718 184.395112,40.4485399 183.834625,39.879455 C183.274138,39.3109146 182.437508,39.0266445 181.326376,39.0266445" id="Fill-1" fill="#FFFFFF"></path>
                <g id="Group-5" transform="translate(104.988832, 0.244516)">
                    <mask id="mask-2" fill="white">
                        <use xlink:href="#path-1"></use>
                    </mask>
                    <g id="Clip-4"></g>
                    <path d="M84.6780864,44.9864065 L72.8400488,44.9864065 C72.8914495,45.9209038 73.2889854,46.6925721 74.0435926,47.3221052 C74.7981998,47.9412914 75.6851367,48.256058 76.7044033,48.256058 C78.4684344,48.256058 79.610188,47.5252331 80.1307576,46.0423449 L84.4741237,47.2714594 C84.0459661,48.8349453 83.1486397,50.124508 81.7723017,51.1401476 C80.4058065,52.1454401 78.6926293,52.6529876 76.6431598,52.6529876 C74.1759223,52.6529876 72.0859883,51.840476 70.3624217,50.1958478 C68.6394018,48.5708245 67.7726972,46.3674585 67.7726972,43.625504 C67.7726972,40.9853857 68.6191696,38.8430125 70.2913355,37.1776903 C71.9738909,35.5227152 73.9621169,34.6900541 76.266403,34.6900541 C78.9069815,34.6900541 80.9974623,35.4617224 82.5061299,36.9947119 C84.0251871,38.5282459 84.7901839,40.6608167 84.7901839,43.3820772 C84.7901839,44.2452347 84.7491726,44.7832786 84.6780864,44.9864065 L84.6780864,44.9864065 Z M60.5946326,52.1454401 L65.7948607,52.1454401 L65.7948607,27.4700277 L60.5946326,27.4700277 L60.5946326,52.1454401 Z M56.0270716,50.9168702 C54.5993328,52.0741003 52.8150695,52.6529876 50.6633452,52.6529876 C48.114632,52.6529876 45.953065,51.8099795 44.1791912,50.1147056 C42.4151601,48.4183425 41.5276764,46.2863162 41.5276764,43.6968438 C41.5276764,41.0768749 42.3943811,38.9241547 44.1179477,37.2386832 C45.8409676,35.5428646 47.9615233,34.6900541 50.5003938,34.6900541 C52.7128147,34.6900541 54.5178571,35.2585945 55.9352063,36.3956751 C57.3525556,37.5327558 58.2597247,38.9345017 58.6780396,40.5894769 L54.0180665,41.9912228 C53.8141038,41.2598534 53.4269575,40.6608167 52.8555339,40.183221 C52.2846571,39.70617 51.5305967,39.4621986 50.6026486,39.4621986 C49.4811272,39.4621986 48.5531791,39.837958 47.8084145,40.5894769 C47.0641968,41.3409957 46.6972827,42.3767847 46.6972827,43.6968438 C46.6972827,44.9864065 47.0745863,46.0118485 47.8390363,46.7633673 C48.604033,47.5050837 49.5522134,47.8802985 50.6633452,47.8802985 C51.6016829,47.8802985 52.3765224,47.6368718 52.9780209,47.1494737 C53.5795194,46.6620756 53.9874448,46.0630389 54.1914074,45.3621659 L58.7797475,46.7633673 C58.3619794,48.3780436 57.443874,49.7590956 56.0270716,50.9168702 L56.0270716,50.9168702 Z M41.191384,40.3155537 C40.7123725,40.203915 40.1617279,40.1429222 39.5498399,40.1429222 C38.3774646,40.1429222 37.4292842,40.5186816 36.6845197,41.2702004 C35.9506915,42.0211747 35.5733879,43.1789493 35.5733879,44.7527822 L35.5733879,52.1454401 L30.3731598,52.1454401 L30.3731598,35.2079486 L35.4000469,35.2079486 L35.4000469,37.4924569 C35.817815,36.6292994 36.4400926,35.9997663 37.286565,35.6142045 C38.1324907,35.2280981 38.9789631,35.0353171 39.8150461,35.0353171 C40.3449116,35.0353171 40.8042377,35.0957654 41.191384,35.2079486 L41.191384,40.3155537 Z M26.7330001,32.1713769 C26.1216589,32.7606113 25.3976734,33.0552284 24.5512009,33.0552284 C23.735897,33.0552284 23.0321438,32.7606113 22.4306453,32.1713769 C21.8389895,31.5826872 21.5431615,30.8616648 21.5431615,30.0290037 C21.5431615,29.1859957 21.8389895,28.4649733 22.4306453,27.8762835 C23.0321438,27.2875938 23.735897,26.9929766 24.5512009,26.9929766 C25.3976734,26.9929766 26.1216589,27.2875938 26.7330001,27.8762835 C27.3350455,28.4649733 27.6303265,29.1859957 27.6303265,30.0290037 C27.6303265,30.8616648 27.3350455,31.5826872 26.7330001,32.1713769 L26.7330001,32.1713769 Z M21.9920982,52.1454401 L27.1923263,52.1454401 L27.1923263,35.2079486 L21.9920982,35.2079486 L21.9920982,52.1454401 Z M17.4239903,50.9168702 C15.9967984,52.0741003 14.2125351,52.6529876 12.0712003,52.6529876 C9.51209756,52.6529876 7.35053061,51.8099795 5.5864995,50.1147056 C3.81207888,48.4183425 2.92514197,46.2863162 2.92514197,43.6968438 C2.92514197,41.0768749 3.79184666,38.9241547 5.5148665,37.2386832 C7.23843316,35.5428646 9.35898884,34.6900541 11.8978594,34.6900541 C14.1102803,34.6900541 15.9251654,35.2585945 17.3326719,36.3956751 C18.7494743,37.5327558 19.6675798,38.9345017 20.0749583,40.5894769 L15.4155321,41.9912228 C15.2115694,41.2598534 14.8244231,40.6608167 14.2529995,40.183221 C13.6821227,39.70617 12.937905,39.4621986 12.0001142,39.4621986 C10.878046,39.4621986 9.95064466,39.837958 9.20588013,40.5894769 C8.47205194,41.3409957 8.09474832,42.3767847 8.09474832,43.6968438 C8.09474832,44.9864065 8.48244146,46.0118485 9.24689139,46.7633673 C10.0113413,47.5050837 10.949679,47.8802985 12.0712003,47.8802985 C12.9991485,47.8802985 13.773988,47.6368718 14.3754865,47.1494737 C14.976985,46.6620756 15.3849104,46.0630389 15.588873,45.3621659 L20.1772131,46.7633673 C19.7692877,48.3780436 18.8517291,49.7590956 17.4239903,50.9168702 L17.4239903,50.9168702 Z M87.0534587,38.1323371 C81.8433879,-17.7681376 -4.7625559,-8.88278905 0.366039189,46.1441812 C5.52525602,101.49572 92.2132224,93.4740739 87.0534587,38.1323371 L87.0534587,38.1323371 Z" id="Fill-3" fill="#FFFFFF" mask="url(#mask-2)"></path>
                </g>
                <path d="M20.1563794,34.9383276 C17.8739659,34.9383276 16.1181371,35.8254466 14.8856119,37.5969616 C13.9735214,35.8254466 12.296981,34.9383276 9.85653748,34.9383276 C8.89851439,34.9383276 7.94486583,35.1659616 6.99887271,35.6206849 C6.05178595,36.0748637 5.37263944,36.6657318 4.96252682,37.3916554 L4.96252682,35.4502318 L0.00016404505,35.4502318 L0.00016404505,52.3882678 L5.20203259,52.3882678 L5.20203259,42.6408509 C5.20203259,41.8234381 5.45192788,41.1307338 5.95390574,40.562738 C6.45588359,39.9941977 7.14104508,39.7099276 8.00720295,39.7099276 C8.89851439,39.7099276 9.57547363,39.9778603 10.0440957,40.511003 C10.5105304,41.0457795 10.7456617,41.7324934 10.7456617,42.5727786 L10.7456617,52.3882678 L15.8786313,52.3882678 L15.8786313,42.6076316 C15.8786313,41.8114573 16.1290734,41.1307338 16.6310512,40.562738 C17.1330291,39.9941977 17.8302206,39.7099276 18.7193447,39.7099276 C19.6090157,39.7099276 20.2816004,39.9778603 20.7376457,40.511003 C21.1936909,41.0457795 21.4222603,41.7324934 21.4222603,42.5727786 L21.4222603,52.3882678 L26.453522,52.3882678 L26.453522,41.4150039 C26.453522,39.2557488 25.8481958,37.6367159 24.6397306,36.5579052 C23.4301718,35.4790944 21.936815,34.9383276 20.1563794,34.9383276" id="Fill-6" fill="#FFFFFF"></path>
                <path d="M39.9862544,47.0375083 C39.2447708,47.7650657 38.3386953,48.1282998 37.2663875,48.1282998 C36.2164992,48.1282998 35.315345,47.7590753 34.562925,47.0206264 C33.8094115,46.282722 33.4326547,45.243121 33.4326547,43.9018233 C33.4326547,42.5616147 33.8094115,41.5285486 34.562925,40.8009913 C35.315345,40.0734339 36.2164992,39.7101998 37.2663875,39.7101998 C38.3386953,39.7101998 39.2447708,40.0674436 39.9862544,40.7846539 C40.727738,41.5002305 41.0984799,42.539287 41.0984799,43.9018233 C41.0984799,45.2659933 40.727738,46.3115847 39.9862544,47.0375083 M37.2663875,34.9380554 C34.7111124,34.9380554 32.5664968,35.7859646 30.8319938,37.4785157 C29.0985844,39.1710668 28.2307861,41.3112617 28.2307861,43.9018233 C28.2307861,46.4923849 29.0985844,48.6385701 30.8319938,50.3436465 C32.5664968,52.0481783 34.7111124,52.8988105 37.2663875,52.8988105 C39.844082,52.8988105 41.993619,52.0541687 43.716092,50.3599839 C45.4385651,48.6679774 46.3003484,46.5152572 46.3003484,43.9018233 C46.3003484,41.2900231 45.4385651,39.1422041 43.716092,37.4605446 C41.993619,35.7799743 39.844082,34.9380554 37.2663875,34.9380554" id="Fill-8" fill="#FFFFFF"></path>
                <path d="M58.0739163,35.0066723 C57.1372191,35.0066723 56.2207541,35.2179689 55.3190531,35.6372946 C54.4173522,36.0577095 53.7507824,36.6431317 53.3177035,37.3919277 L53.3177035,35.4505041 L48.2864418,35.4505041 L48.2864418,52.3885401 L53.4883104,52.3885401 L53.4883104,42.6759763 C53.4883104,41.8111851 53.7447675,41.1021434 54.2587753,40.5461284 C54.7711427,39.9884796 55.4502892,39.7101998 56.2934807,39.7101998 C57.206118,39.7101998 57.8972945,39.9775881 58.3653697,40.5107308 C58.8323513,41.0455072 59.0652953,41.7550934 59.0652953,42.6411232 L59.0652953,52.3885401 L64.2677106,52.3885401 L64.2677106,41.7550934 C64.2677106,39.7788168 63.7427665,38.1592393 62.6934249,36.8979946 C61.6435366,35.6372946 60.1042472,35.0066723 58.0739163,35.0066723" id="Fill-10" fill="#FFFFFF"></path>
                <path d="M71.2146357,41.8919461 C71.2829878,41.1643888 71.6127184,40.5065375 72.2060146,39.9151249 C72.7993109,39.3242568 73.5971167,39.0280059 74.6027128,39.0280059 C75.7193128,39.0280059 76.5581298,39.3122761 77.1164298,39.8802718 C77.6763703,40.4488121 77.97876,41.1186441 78.0241458,41.8919461 L71.2146357,41.8919461 Z M74.5338139,34.9382187 C72.2289809,34.9382187 70.2380209,35.7676123 68.5614804,37.4269441 C66.8854868,39.0857313 66.046123,41.2324611 66.046123,43.8682228 C66.046123,46.6167122 66.9084532,48.8108204 68.6303794,50.4451016 C70.3528524,52.081561 72.4455204,52.8989739 74.9111175,52.8989739 C76.9644147,52.8989739 78.674311,52.3946939 80.0440871,51.3823218 C81.4122229,50.372128 82.3122834,49.0825653 82.7475496,47.5147228 L78.4014494,46.287242 C77.8765052,47.765229 76.7352985,48.503678 74.9778292,48.503678 C73.951454,48.503678 73.061783,48.1905451 72.3099098,47.5664578 C71.5563962,46.9418258 71.1566731,46.1625335 71.112381,45.2313036 L82.9515123,45.2313036 C83.0204112,45.0259974 83.0554074,44.4928547 83.0554074,43.6296972 C83.0554074,40.9029909 82.2958789,38.7725984 80.7795558,37.2401535 C79.2615923,35.7055303 77.1809542,34.9382187 74.5338139,34.9382187 L74.5338139,34.9382187 Z" id="Fill-12" fill="#FFFFFF"></path>
                <polygon id="Fill-14" fill="#FFFFFF" points="92.7057403 44.5156726 88.5641496 35.450613 82.7471121 35.450613 89.8989295 50.1046853 86.0318408 58.8985446 91.506571 58.8985446 101.979207 35.450613 96.4689338 35.450613"></polygon>
            </g>
        </g>
    </g>
</svg>