<?xml version="1.0" encoding="utf-8"?>
<!-- Generator: Adobe Illustrator 21.0.2, SVG Export Plug-In . SVG Version: 6.00 Build 0)  -->
<svg version="1.1" id="Clouds" class="an-clouds" xmlns="http://www.w3.org/2000/svg" xmlns:xlink="http://www.w3.org/1999/xlink" x="0px" y="0px"
	 viewBox="0 0 1440 268.5" style="enable-background:new 0 0 1440 268.5;" xml:space="preserve">
<style type="text/css">
	.st0{fill:#FFFFFF;}
</style>
<path class="st0" d="M1440,24.5C1420.3,9.2,1395.5,0,1368.5,0c-31.4,0-59.9,12.5-80.8,32.7c-10-3.9-20.9-6-32.2-6
	c-34,0-63.5,18.9-78.7,46.8c-5.8-1.3-11.9-2.1-18.1-2.1c-31.1,0-58.1,17.3-72.1,42.8c-11.4-6.2-24.5-9.8-38.4-9.8
	c-13,0-25.3,3.2-36.2,8.7c-17.4-25.6-46.7-42.4-79.9-42.4c-48,0-87.8,35.1-96.6,81c-18.4,0-35,8-46.5,20.7c-0.1,0-0.3,0-0.4,0
	c-4.9,0-9.7,0.6-14.4,1.6c-12.1-22.1-35.5-37-62.4-37c-9,0-17.6,1.7-25.5,4.7c-16.6-16-39.2-25.9-64.1-25.9
	c-48.6,0-88.4,37.6-92.1,85.3c-1.9-0.2-3.9-0.3-5.9-0.3c-9,0-17.6,1.8-25.4,5c-9.1-10.9-22.8-17.8-38.1-17.8c-0.3,0-0.7,0-1,0.1
	c-5.9-36.4-37.5-64.2-75.5-64.2c-26.3,0-49.5,13.3-63.3,33.5c-8.6-4.4-18.4-6.9-28.7-6.9c-11,0-21.4,2.8-30.4,7.7
	c-11.1-20.2-32.5-33.9-57.2-33.9c-4.9,0-9.7,0.6-14.4,1.6c-12.1-22.1-35.5-37-62.4-37c-9,0-17.6,1.7-25.5,4.7
	C85.6,77.9,63,68,38.2,68C24.5,68,11.6,70.9,0,76.2L0,268h1440V24.5z"/>
</svg>
