<?xml version="1.0" encoding="utf-8"?>
<!-- Generator: Adobe Illustrator 21.0.2, SVG Export Plug-In . SVG Version: 6.00 Build 0)  -->
<svg version="1.1" id="Layer_1" xmlns="http://www.w3.org/2000/svg" xmlns:xlink="http://www.w3.org/1999/xlink" x="0px" y="0px"
	 viewBox="0 0 315 138" style="enable-background:new 0 0 315 138;" xml:space="preserve">
<style type="text/css">
	.st0{fill:#FFFFFF;}
	.st1{filter:url(#Adobe_OpacityMaskFilter);}
	.st2{mask:url(#mask-2);fill:#FFFFFF;}
</style>
<g id="circle">
	<path id="Fill-1" class="st0" d="M296.8,63.7c-1.7,0-3,0.5-3.9,1.5c-1,1-1.5,2-1.6,3.2h11.2c-0.1-1.3-0.6-2.4-1.5-3.3
		C300,64.2,298.7,63.7,296.8,63.7"/>
	<defs>
		<filter id="Adobe_OpacityMaskFilter" filterUnits="userSpaceOnUse" x="172.1" y="0.9" width="142.6" height="136.4">
			<feColorMatrix  type="matrix" values="1 0 0 0 0  0 1 0 0 0  0 0 1 0 0  0 0 0 1 0"/>
		</filter>
	</defs>
	<mask maskUnits="userSpaceOnUse" x="172.1" y="0.9" width="142.6" height="136.4" id="mask-2">
		<g class="st1">
			<polygon id="path-1" class="st0" points="172.1,137.3 314.8,137.3 314.8,0.9 172.1,0.9 			"/>
		</g>
	</mask>
	<path id="Fill-3" class="st2" d="M310.5,73.8h-19.4c0.1,1.5,0.7,2.8,2,3.8c1.2,1,2.7,1.5,4.4,1.5c2.9,0,4.8-1.2,5.6-3.6l7.1,2
		c-0.7,2.6-2.2,4.7-4.4,6.3c-2.2,1.6-5,2.5-8.4,2.5c-4,0-7.5-1.3-10.3-4c-2.8-2.7-4.2-6.2-4.2-10.7c0-4.3,1.4-7.8,4.1-10.5
		c2.8-2.7,6-4.1,9.8-4.1c4.3,0,7.7,1.3,10.2,3.8c2.5,2.5,3.7,6,3.7,10.4C310.7,72.6,310.6,73.5,310.5,73.8L310.5,73.8z M271.1,85.5
		h8.5V45.2h-8.5V85.5z M263.6,83.5c-2.3,1.9-5.3,2.8-8.8,2.8c-4.2,0-7.7-1.4-10.6-4.1c-2.9-2.8-4.3-6.2-4.3-10.5
		c0-4.3,1.4-7.8,4.2-10.5c2.8-2.8,6.3-4.2,10.4-4.2c3.6,0,6.6,0.9,8.9,2.8c2.3,1.9,3.8,4.1,4.5,6.8l-7.6,2.3c-0.3-1.2-1-2.2-1.9-3
		c-0.9-0.8-2.2-1.2-3.7-1.2c-1.8,0-3.4,0.6-4.6,1.8c-1.2,1.2-1.8,2.9-1.8,5.1c0,2.1,0.6,3.8,1.9,5c1.3,1.2,2.8,1.8,4.6,1.8
		c1.5,0,2.8-0.4,3.8-1.2c1-0.8,1.7-1.8,2-2.9l7.5,2.3C267.4,79.4,265.9,81.6,263.6,83.5L263.6,83.5z M239.3,66.2
		c-0.8-0.2-1.7-0.3-2.7-0.3c-1.9,0-3.5,0.6-4.7,1.8c-1.2,1.2-1.8,3.1-1.8,5.7v12.1h-8.5V57.9h8.2v3.7c0.7-1.4,1.7-2.4,3.1-3.1
		c1.4-0.6,2.8-0.9,4.1-0.9c0.9,0,1.6,0.1,2.3,0.3V66.2z M215.6,52.9c-1,1-2.2,1.4-3.6,1.4c-1.3,0-2.5-0.5-3.5-1.4
		c-1-1-1.5-2.1-1.5-3.5c0-1.4,0.5-2.6,1.5-3.5c1-1,2.1-1.4,3.5-1.4c1.4,0,2.6,0.5,3.6,1.4c1,1,1.5,2.1,1.5,3.5
		C217.1,50.8,216.6,51.9,215.6,52.9L215.6,52.9z M207.9,85.5h8.5V57.9h-8.5V85.5z M200.4,83.5c-2.3,1.9-5.3,2.8-8.8,2.8
		c-4.2,0-7.7-1.4-10.6-4.1c-2.9-2.8-4.4-6.2-4.4-10.5c0-4.3,1.4-7.8,4.2-10.5c2.8-2.8,6.3-4.2,10.4-4.2c3.6,0,6.6,0.9,8.9,2.8
		c2.3,1.9,3.8,4.1,4.5,6.8l-7.6,2.3c-0.3-1.2-1-2.2-1.9-3c-0.9-0.8-2.2-1.2-3.7-1.2c-1.8,0-3.4,0.6-4.6,1.8
		c-1.2,1.2-1.8,2.9-1.8,5.1c0,2.1,0.6,3.8,1.9,5c1.3,1.2,2.8,1.8,4.6,1.8c1.5,0,2.8-0.4,3.8-1.2s1.7-1.8,2-2.9l7.5,2.3
		C204.2,79.4,202.7,81.6,200.4,83.5L200.4,83.5z M314.4,62.6c-8.5-91.2-150.3-76.7-141.9,13.1C180.9,166,322.8,153,314.4,62.6
		L314.4,62.6z"/>
</g>
<g id="money">
	<path id="Fill-6" class="st0" d="M33,57c-3.7,0-6.6,1.4-8.6,4.3c-1.5-2.9-4.2-4.3-8.2-4.3c-1.6,0-3.1,0.4-4.7,1.1
		c-1.6,0.7-2.7,1.7-3.3,2.9v-3.2H0v27.6h8.5V69.6c0-1.3,0.4-2.5,1.2-3.4c0.8-0.9,1.9-1.4,3.4-1.4c1.5,0,2.6,0.4,3.3,1.3
		c0.8,0.9,1.1,2,1.1,3.4v16H26v-16c0-1.3,0.4-2.4,1.2-3.3c0.8-0.9,2-1.4,3.4-1.4c1.5,0,2.6,0.4,3.3,1.3c0.7,0.9,1.1,2,1.1,3.4v16
		h8.2V67.6c0-3.5-1-6.2-3-7.9C38.4,57.9,35.9,57,33,57"/>
	<path id="Fill-8" class="st0" d="M65.5,76.8c-1.2,1.2-2.7,1.8-4.5,1.8c-1.7,0-3.2-0.6-4.4-1.8c-1.2-1.2-1.9-2.9-1.9-5.1
		c0-2.2,0.6-3.9,1.9-5.1c1.2-1.2,2.7-1.8,4.4-1.8c1.8,0,3.2,0.6,4.5,1.8c1.2,1.2,1.8,2.9,1.8,5.1C67.3,73.9,66.7,75.6,65.5,76.8
		 M61,57c-4.2,0-7.7,1.4-10.5,4.1c-2.8,2.8-4.3,6.3-4.3,10.5s1.4,7.7,4.3,10.5c2.8,2.8,6.4,4.2,10.5,4.2c4.2,0,7.7-1.4,10.6-4.1
		c2.8-2.8,4.2-6.3,4.2-10.5c0-4.3-1.4-7.8-4.2-10.5C68.7,58.4,65.2,57,61,57"/>
	<path id="Fill-10" class="st0" d="M95.1,57.1c-1.5,0-3,0.3-4.5,1c-1.5,0.7-2.6,1.6-3.3,2.9v-3.2H79v27.6h8.5V69.7
		c0-1.4,0.4-2.6,1.3-3.5c0.8-0.9,2-1.4,3.3-1.4c1.5,0,2.6,0.4,3.4,1.3c0.8,0.9,1.1,2,1.1,3.5v15.9h8.5V68.1c0-3.2-0.9-5.9-2.6-7.9
		C100.9,58.2,98.4,57.1,95.1,57.1"/>
	<path id="Fill-12" class="st0" d="M116.6,68.4c0.1-1.2,0.7-2.3,1.6-3.2c1-1,2.3-1.4,3.9-1.4c1.8,0,3.2,0.5,4.1,1.4
		c0.9,0.9,1.4,2,1.5,3.3H116.6z M122,57c-3.8,0-7,1.4-9.8,4.1c-2.7,2.7-4.1,6.2-4.1,10.5c0,4.5,1.4,8.1,4.2,10.7
		c2.8,2.7,6.2,4,10.3,4c3.4,0,6.2-0.8,8.4-2.5c2.2-1.6,3.7-3.8,4.4-6.3l-7.1-2c-0.9,2.4-2.7,3.6-5.6,3.6c-1.7,0-3.1-0.5-4.4-1.5
		c-1.2-1-1.9-2.3-2-3.8h19.4c0.1-0.3,0.2-1.2,0.2-2.6c0-4.5-1.2-7.9-3.7-10.4C129.8,58.3,126.4,57,122,57L122,57z"/>
	<polygon id="Fill-14" class="st0" points="151.8,72.7 145,57.9 135.5,57.9 147.2,81.8 140.8,96.1 149.8,96.1 166.9,57.9 
		157.9,57.9 	"/>
</g>
</svg>
