<svg width="315px" height="138px" viewBox="0 0 315 138" version="1.1" xmlns="http://www.w3.org/2000/svg" xmlns:xlink="http://www.w3.org/1999/xlink">
    <!-- Generator: Sketch 41.2 (35397) - http://www.bohemiancoding.com/sketch -->
    <title>Money Circle Logo</title>
    <defs>
        <polygon id="path-1" points="0.240742918 136.874207 142.87567 136.874207 142.87567 0.489924314 0.240742918 0.489924314 0.240742918 136.874207"></polygon>
    </defs>
    <g id="Money-Circle-/-Event-Page" stroke="none" stroke-width="1" fill="none" fill-rule="evenodd">
        <g id="Desktop-HD-Copy-2" transform="translate(-566.000000, -252.000000)">
            <g id="MoneyCircleLogo" transform="translate(566.000000, 252.000000)">
                <path d="M296.845251,63.6944121 C295.192747,63.6944121 293.891153,64.1752494 292.922567,65.1529223 C291.937868,66.1137082 291.403444,67.190926 291.287071,68.3676886 L302.437449,68.3676886 C302.37031,67.1082682 301.869009,66.0150521 300.951448,65.0862628 C300.033887,64.1583624 298.66426,63.6944121 296.845251,63.6944121" id="Fill-1" fill="#FFFFFF"></path>
                <g id="Group-5" transform="translate(171.874809, 0.399068)">
                    <mask id="mask-2" fill="white">
                        <use xlink:href="#path-1"></use>
                    </mask>
                    <g id="Clip-4"></g>
                    <path d="M138.624553,73.421191 L119.244773,73.421191 C119.32892,74.9463607 119.979717,76.2057812 121.215067,77.2332265 C122.450417,78.2437848 123.902401,78.7575075 125.571019,78.7575075 C128.458874,78.7575075 130.328013,77.5647465 131.180225,75.1445617 L138.29065,77.1505687 C137.589724,79.702295 136.120731,81.8069581 133.86756,83.4645581 C131.630502,85.105271 128.825899,85.9336266 125.470759,85.9336266 C121.431701,85.9336266 118.010318,84.6075466 115.188707,81.9233901 C112.36799,79.2712301 110.949128,75.6751714 110.949128,71.2000959 C110.949128,66.8912248 112.334869,63.3947109 115.072333,60.6767803 C117.826806,57.9757367 121.081685,56.6167713 124.853979,56.6167713 C129.17681,56.6167713 132.599088,57.8761918 135.068893,60.3781456 C137.555707,62.8809883 138.808065,66.3615038 138.808065,70.8028052 C138.808065,72.211543 138.740927,73.089671 138.624553,73.421191 L138.624553,73.421191 Z M99.1980832,85.105271 L107.711257,85.105271 L107.711257,44.8331464 L99.1980832,44.8331464 L99.1980832,85.105271 Z M91.7206338,83.1001527 C89.3833155,84.988839 86.4623389,85.9336266 82.9398005,85.9336266 C78.7673604,85.9336266 75.2287088,84.5577742 72.3247407,81.7909598 C69.4368858,79.0223679 67.9840065,75.5427412 67.9840065,71.3165279 C67.9840065,67.0405421 69.4028689,63.5271412 72.2244803,60.7763251 C75.0451966,58.008622 78.5167097,56.6167713 82.6730365,56.6167713 C86.29494,56.6167713 89.2499334,57.5446718 91.5702434,59.4004727 C93.8905533,61.2562737 95.3756591,63.5440283 96.0604728,66.2450719 L88.4317377,68.5328265 C88.0978351,67.3391767 87.4640468,66.3615038 86.5285823,65.5820319 C85.594013,64.8034487 84.359558,64.4052692 82.8404354,64.4052692 C81.0044185,64.4052692 79.4852959,65.0185368 78.2660589,66.2450719 C77.0477172,67.471607 76.4470505,69.1620923 76.4470505,71.3165279 C76.4470505,73.421191 77.0647256,75.0947892 78.3161891,76.3213243 C79.5685477,77.5318612 81.1207921,78.1442399 82.9398005,78.1442399 C84.4759316,78.1442399 85.7444035,77.7469492 86.7291029,76.951479 C87.7138023,76.1560087 88.3816076,75.1783358 88.7155102,74.0344585 L96.2269765,76.3213243 C95.543058,78.9565972 94.0400486,81.2105777 91.7206338,83.1001527 L91.7206338,83.1001527 Z M67.43347,65.7980087 C66.6492912,65.615806 65.7478437,65.5162611 64.7461358,65.5162611 C62.8268671,65.5162611 61.2746227,66.1295287 60.0553858,67.3560638 C58.8540525,68.5817101 58.2363774,70.4712852 58.2363774,73.0398985 L58.2363774,85.105271 L49.7232032,85.105271 L49.7232032,57.462014 L57.9526049,57.462014 L57.9526049,61.1905029 C58.6365234,59.7817652 59.6552397,58.7543198 61.0409804,58.125054 C62.4258259,57.4948994 63.8115665,57.1802664 65.1802987,57.1802664 C66.0477294,57.1802664 66.7996817,57.2789225 67.43347,57.462014 L67.43347,65.7980087 Z M43.7639814,52.5061012 C42.7631687,53.4677758 41.5779486,53.9486131 40.192208,53.9486131 C38.8574927,53.9486131 37.7053943,53.4677758 36.7206949,52.5061012 C35.7521087,51.5453153 35.2678157,50.3685527 35.2678157,49.0095873 C35.2678157,47.6337349 35.7521087,46.4569722 36.7206949,45.4961864 C37.7053943,44.5354006 38.8574927,44.0545633 40.192208,44.0545633 C41.5779486,44.0545633 42.7631687,44.5354006 43.7639814,45.4961864 C44.749576,46.4569722 45.2329739,47.6337349 45.2329739,49.0095873 C45.2329739,50.3685527 44.749576,51.5453153 43.7639814,52.5061012 L43.7639814,52.5061012 Z M36.0027595,85.105271 L44.5159336,85.105271 L44.5159336,57.462014 L36.0027595,57.462014 L36.0027595,85.105271 Z M28.5244149,83.1001527 C26.1879918,84.988839 23.2670152,85.9336266 19.7614852,85.9336266 C15.5720367,85.9336266 12.0333851,84.5577742 9.14553021,81.7909598 C6.2406669,79.0223679 4.78868283,75.5427412 4.78868283,71.3165279 C4.78868283,67.0405421 6.20754519,63.5271412 9.02826146,60.7763251 C11.8498729,58.008622 15.321386,56.6167713 19.4777127,56.6167713 C23.0996163,56.6167713 26.070723,57.5446718 28.3749197,59.4004727 C30.6943344,61.2562737 32.1973438,63.5440283 32.8642539,66.2450719 L25.236414,68.5328265 C24.9025114,67.3391767 24.2687231,66.3615038 23.3332586,65.5820319 C22.3986893,64.8034487 21.1803476,64.4052692 19.6451116,64.4052692 C17.8081996,64.4052692 16.2899721,65.0185368 15.0707352,66.2450719 C13.8694019,67.471607 13.2517268,69.1620923 13.2517268,71.3165279 C13.2517268,73.421191 13.8864104,75.0947892 15.1378738,76.3213243 C16.3893373,77.5318612 17.9254684,78.1442399 19.7614852,78.1442399 C21.2806079,78.1442399 22.5490798,77.7469492 23.5337792,76.951479 C24.5184786,76.1560087 25.1862839,75.1783358 25.5201865,74.0344585 L33.0316528,76.3213243 C32.3638475,78.9565972 30.8617333,81.2105777 28.5244149,83.1001527 L28.5244149,83.1001527 Z M142.513221,62.2348354 C133.983933,-28.9989338 -7.79667103,-14.4973782 0.599234361,75.3107661 C9.0452699,165.648631 150.960151,152.556702 142.513221,62.2348354 L142.513221,62.2348354 Z" id="Fill-3" fill="#FFFFFF" mask="url(#mask-2)"></path>
                </g>
                <path d="M32.9975464,57.0219723 C29.2610596,57.0219723 26.3866325,58.469817 24.3688938,61.3610624 C22.8757314,58.469817 20.1311056,57.0219723 16.1359114,57.0219723 C14.5675538,57.0219723 13.0063576,57.393488 11.457694,58.1356306 C9.90723998,58.8768844 8.7954248,59.8412254 8.12403883,61.0259872 L8.12403883,57.8574382 L0.000268554389,57.8574382 L0.000268554389,85.501584 L8.51612824,85.501584 L8.51612824,69.5930683 C8.51612824,68.2589892 8.92522609,67.1284438 9.74700252,66.2014321 C10.568779,65.2735316 11.6904411,64.8095814 13.1084083,64.8095814 C14.5675538,64.8095814 15.6757883,65.2468678 16.4429586,66.1169967 C17.2065483,66.989792 17.5914762,68.1105606 17.5914762,69.4819691 L17.5914762,85.501584 L25.9945431,85.501584 L25.9945431,69.5388519 C25.9945431,68.2394357 26.4045361,67.1284438 27.2263125,66.2014321 C28.048089,65.2735316 29.1894451,64.8095814 30.6450099,64.8095814 C32.1014699,64.8095814 33.2025429,65.2468678 33.9491241,66.1169967 C34.6957053,66.989792 35.0698911,68.1105606 35.0698911,69.4819691 L35.0698911,85.501584 L43.3064542,85.501584 L43.3064542,67.592394 C43.3064542,64.0683276 42.3154885,61.4259443 40.3371378,59.6652443 C38.3569968,57.9045443 35.9122567,57.0219723 32.9975464,57.0219723" id="Fill-6" fill="#FFFFFF"></path>
                <path d="M65.46058,76.768743 C64.2467141,77.9561712 62.7633987,78.5489965 61.0079482,78.5489965 C59.2892001,78.5489965 57.8139413,77.9463945 56.5821719,76.7411904 C55.348612,75.5368751 54.7318321,73.8401683 54.7318321,71.6510697 C54.7318321,69.4637488 55.348612,67.7777075 56.5821719,66.5902793 C57.8139413,65.4028511 59.2892001,64.8100258 61.0079482,64.8100258 C62.7633987,64.8100258 64.2467141,65.3930744 65.46058,66.5636155 C66.6744458,67.7314902 67.2813787,69.4273083 67.2813787,71.6510697 C67.2813787,73.8774976 66.6744458,75.5839812 65.46058,76.768743 M61.0079482,57.0215279 C56.824766,57.0215279 53.313865,58.4053795 50.4743499,61.1677498 C47.6366252,63.9301202 46.2159724,67.4230788 46.2159724,71.6510697 C46.2159724,75.8790607 47.6366252,79.381796 50.4743499,82.1646087 C53.313865,84.9465325 56.824766,86.334828 61.0079482,86.334828 C65.2278328,86.334828 68.7467905,84.9563092 71.5666116,82.1912725 C74.3864327,79.4297909 75.7972384,75.91639 75.7972384,71.6510697 C75.7972384,67.3884159 74.3864327,63.8830141 71.5666116,61.1384196 C68.7467905,58.3956027 65.2278328,57.0215279 61.0079482,57.0215279" id="Fill-8" fill="#FFFFFF"></path>
                <path d="M95.0714765,57.1335159 C93.5380309,57.1335159 92.037707,57.4783678 90.5615531,58.1627388 C89.0853991,58.8488874 87.9941731,59.8043405 87.2851895,61.0264316 L87.2851895,57.8578826 L79.0486264,57.8578826 L79.0486264,85.5020284 L87.5644861,85.5020284 L87.5644861,69.6503955 C87.5644861,68.2389913 87.9843261,67.0817821 88.8257965,66.1743239 C89.6645814,65.2641993 90.7763966,64.8100258 92.1567662,64.8100258 C93.6508237,64.8100258 94.7823329,65.2464234 95.5486081,66.1165523 C96.3130929,66.9893476 96.6944402,68.1474456 96.6944402,69.5935127 L96.6944402,85.5020284 L105.211195,85.5020284 L105.211195,68.1474456 C105.211195,64.9220138 104.351821,62.2787418 102.633968,60.2202959 C100.91522,58.1627388 98.3952846,57.1335159 95.0714765,57.1335159" id="Fill-10" fill="#FFFFFF"></path>
                <path d="M116.583847,68.3707994 C116.695744,67.1833712 117.235539,66.1097086 118.20681,65.1444788 C119.178082,64.1801378 120.484152,63.6966341 122.13039,63.6966341 C123.95835,63.6966341 125.331558,64.1605843 126.245539,65.087596 C127.162204,66.0154965 127.657239,67.1087125 127.731539,68.3707994 L116.583847,68.3707994 Z M122.017597,57.0217945 C118.244408,57.0217945 114.985053,58.3754271 112.240427,61.0835811 C109.496696,63.7908462 108.122593,67.2944704 108.122593,71.5962312 C108.122593,76.0819722 109.534294,79.6629214 112.35322,82.3301909 C115.173041,85.0010155 118.5989,86.3350946 122.635272,86.3350946 C125.996678,86.3350946 128.79591,85.5120718 131.038339,83.8598046 C133.278083,82.2110926 134.751551,80.1064294 135.464116,77.5475928 L128.349215,75.5442521 C127.489841,77.9564378 125.621597,79.1616419 122.744484,79.1616419 C121.064229,79.1616419 119.607769,78.6505856 118.376895,77.6320282 C117.143335,76.612582 116.488958,75.3407184 116.416448,73.8208814 L135.798018,73.8208814 C135.910811,73.4858063 135.968103,72.6156774 135.968103,71.2069396 C135.968103,66.7567503 134.724696,63.2797899 132.242358,60.7787249 C129.757335,58.2741047 126.35117,57.0217945 122.017597,57.0217945 L122.017597,57.0217945 Z" id="Fill-12" fill="#FFFFFF"></path>
                <polygon id="Fill-14" fill="#FFFFFF" points="151.766441 72.6529178 144.986338 57.8580604 135.463399 57.8580604 147.171476 81.774606 140.840753 96.1268443 149.803309 96.1268443 166.947821 57.8580604 157.927079 57.8580604"></polygon>
            </g>
        </g>
    </g>
</svg>
