<?xml version="1.0" encoding="UTF-8"?>
<svg width="315px" height="138px" viewBox="0 0 315 138" version="1.1" xmlns="http://www.w3.org/2000/svg" xmlns:xlink="http://www.w3.org/1999/xlink">
    <!-- Generator: Sketch 42 (36781) - http://www.bohemiancoding.com/sketch -->
    <title>MoneyCircleLogo</title>
    <desc>Created with Sketch.</desc>
    <defs>
        <polygon id="path-1" points="0.240742918 136.874207 142.87567 136.874207 142.87567 0.489924314 0.240742918 0.489924314 0.240742918 136.874207"></polygon>
    </defs>
    <g id="Money-Circle-/-Event-Page" stroke="none" stroke-width="1" fill="none" fill-rule="evenodd">
        <g id="Desktop-HD-Copy-2" transform="translate(-566.000000, -252.000000)">
            <g id="MoneyCircleLogo" transform="translate(566.000000, 252.000000)">
                <g id="circle" transform="translate(171.874809, 0.399068)">
                    <mask id="mask-2" fill="white">
                        <use xlink:href="#path-1"></use>
                    </mask>
                    <g id="Clip-4"></g>
                    <path d="M138.624553,73.421191 L119.244773,73.421191 C119.32892,74.9463607 119.979717,76.2057812 121.215067,77.2332265 C122.450417,78.2437848 123.902401,78.7575075 125.571019,78.7575075 C128.458874,78.7575075 130.328013,77.5647465 131.180225,75.1445617 L138.29065,77.1505687 C137.589724,79.702295 136.120731,81.8069581 133.86756,83.4645581 C131.630502,85.105271 128.825899,85.9336266 125.470759,85.9336266 C121.431701,85.9336266 118.010318,84.6075466 115.188707,81.9233901 C112.36799,79.2712301 110.949128,75.6751714 110.949128,71.2000959 C110.949128,66.8912248 112.334869,63.3947109 115.072333,60.6767803 C117.826806,57.9757367 121.081685,56.6167713 124.853979,56.6167713 C129.17681,56.6167713 132.599088,57.8761918 135.068893,60.3781456 C137.555707,62.8809883 138.808065,66.3615038 138.808065,70.8028052 C138.808065,72.211543 138.740927,73.089671 138.624553,73.421191 L138.624553,73.421191 Z M99.1980832,85.105271 L107.711257,85.105271 L107.711257,44.8331464 L99.1980832,44.8331464 L99.1980832,85.105271 Z M91.7206338,83.1001527 C89.3833155,84.988839 86.4623389,85.9336266 82.9398005,85.9336266 C78.7673604,85.9336266 75.2287088,84.5577742 72.3247407,81.7909598 C69.4368858,79.0223679 67.9840065,75.5427412 67.9840065,71.3165279 C67.9840065,67.0405421 69.4028689,63.5271412 72.2244803,60.7763251 C75.0451966,58.008622 78.5167097,56.6167713 82.6730365,56.6167713 C86.29494,56.6167713 89.2499334,57.5446718 91.5702434,59.4004727 C93.8905533,61.2562737 95.3756591,63.5440283 96.0604728,66.2450719 L88.4317377,68.5328265 C88.0978351,67.3391767 87.4640468,66.3615038 86.5285823,65.5820319 C85.594013,64.8034487 84.359558,64.4052692 82.8404354,64.4052692 C81.0044185,64.4052692 79.4852959,65.0185368 78.2660589,66.2450719 C77.0477172,67.471607 76.4470505,69.1620923 76.4470505,71.3165279 C76.4470505,73.421191 77.0647256,75.0947892 78.3161891,76.3213243 C79.5685477,77.5318612 81.1207921,78.1442399 82.9398005,78.1442399 C84.4759316,78.1442399 85.7444035,77.7469492 86.7291029,76.951479 C87.7138023,76.1560087 88.3816076,75.1783358 88.7155102,74.0344585 L96.2269765,76.3213243 C95.543058,78.9565972 94.0400486,81.2105777 91.7206338,83.1001527 L91.7206338,83.1001527 Z M67.43347,65.7980087 C66.6492912,65.615806 65.7478437,65.5162611 64.7461358,65.5162611 C62.8268671,65.5162611 61.2746227,66.1295287 60.0553858,67.3560638 C58.8540525,68.5817101 58.2363774,70.4712852 58.2363774,73.0398985 L58.2363774,85.105271 L49.7232032,85.105271 L49.7232032,57.462014 L57.9526049,57.462014 L57.9526049,61.1905029 C58.6365234,59.7817652 59.6552397,58.7543198 61.0409804,58.125054 C62.4258259,57.4948994 63.8115665,57.1802664 65.1802987,57.1802664 C66.0477294,57.1802664 66.7996817,57.2789225 67.43347,57.462014 L67.43347,65.7980087 Z M43.7639814,52.5061012 C42.7631687,53.4677758 41.5779486,53.9486131 40.192208,53.9486131 C38.8574927,53.9486131 37.7053943,53.4677758 36.7206949,52.5061012 C35.7521087,51.5453153 35.2678157,50.3685527 35.2678157,49.0095873 C35.2678157,47.6337349 35.7521087,46.4569722 36.7206949,45.4961864 C37.7053943,44.5354006 38.8574927,44.0545633 40.192208,44.0545633 C41.5779486,44.0545633 42.7631687,44.5354006 43.7639814,45.4961864 C44.749576,46.4569722 45.2329739,47.6337349 45.2329739,49.0095873 C45.2329739,50.3685527 44.749576,51.5453153 43.7639814,52.5061012 L43.7639814,52.5061012 Z M36.0027595,85.105271 L44.5159336,85.105271 L44.5159336,57.462014 L36.0027595,57.462014 L36.0027595,85.105271 Z M28.5244149,83.1001527 C26.1879918,84.988839 23.2670152,85.9336266 19.7614852,85.9336266 C15.5720367,85.9336266 12.0333851,84.5577742 9.14553021,81.7909598 C6.2406669,79.0223679 4.78868283,75.5427412 4.78868283,71.3165279 C4.78868283,67.0405421 6.20754519,63.5271412 9.02826146,60.7763251 C11.8498729,58.008622 15.321386,56.6167713 19.4777127,56.6167713 C23.0996163,56.6167713 26.070723,57.5446718 28.3749197,59.4004727 C30.6943344,61.2562737 32.1973438,63.5440283 32.8642539,66.2450719 L25.236414,68.5328265 C24.9025114,67.3391767 24.2687231,66.3615038 23.3332586,65.5820319 C22.3986893,64.8034487 21.1803476,64.4052692 19.6451116,64.4052692 C17.8081996,64.4052692 16.2899721,65.0185368 15.0707352,66.2450719 C13.8694019,67.471607 13.2517268,69.1620923 13.2517268,71.3165279 C13.2517268,73.421191 13.8864104,75.0947892 15.1378738,76.3213243 C16.3893373,77.5318612 17.9254684,78.1442399 19.7614852,78.1442399 C21.2806079,78.1442399 22.5490798,77.7469492 23.5337792,76.951479 C24.5184786,76.1560087 25.1862839,75.1783358 25.5201865,74.0344585 L33.0316528,76.3213243 C32.3638475,78.9565972 30.8617333,81.2105777 28.5244149,83.1001527 L28.5244149,83.1001527 Z M142.513221,62.2348354 C133.983933,-28.9989338 -7.79667103,-14.4973782 0.599234361,75.3107661 C9.0452699,165.648631 150.960151,152.556702 142.513221,62.2348354 L142.513221,62.2348354 Z" id="Fill-3" fill="#FFFFFF" mask="url(#mask-2)"></path>
                    <path d="M124.970442,63.2953438 C123.317938,63.2953438 122.016344,63.7761811 121.047758,64.753854 C120.063058,65.7146399 119.528635,66.7918576 119.412262,67.9686203 L130.56264,67.9686203 C130.495501,66.7091998 129.9942,65.6159838 129.076639,64.6871945 C128.159078,63.7592941 126.789451,63.2953438 124.970442,63.2953438" id="Fill-1" fill="#FFFFFF" mask="url(#mask-2)"></path>
                </g>
                <g id="money" transform="translate(0.000000, 57.000000)" fill="#FFFFFF">
                    <path d="M32.9975464,0.0219723023 C29.2610596,0.0219723023 26.3866325,1.469817 24.3688938,4.36106242 C22.8757314,1.469817 20.1311056,0.0219723023 16.1359114,0.0219723023 C14.5675538,0.0219723023 13.0063576,0.393488006 11.457694,1.13563062 C9.90723998,1.87688444 8.7954248,2.84122544 8.12403883,4.02598725 L8.12403883,0.85743824 L0.000268554389,0.85743824 L0.000268554389,28.501584 L8.51612824,28.501584 L8.51612824,12.5930683 C8.51612824,11.2589892 8.92522609,10.1284438 9.74700252,9.20143209 C10.568779,8.27353163 11.6904411,7.80958139 13.1084083,7.80958139 C14.5675538,7.80958139 15.6757883,8.24686782 16.4429586,9.1169967 C17.2065483,9.98979197 17.5914762,11.1105606 17.5914762,12.4819691 L17.5914762,28.501584 L25.9945431,28.501584 L25.9945431,12.5388519 C25.9945431,11.2394357 26.4045361,10.1284438 27.2263125,9.20143209 C28.048089,8.27353163 29.1894451,7.80958139 30.6450099,7.80958139 C32.1014699,7.80958139 33.2025429,8.24686782 33.9491241,9.1169967 C34.6957053,9.98979197 35.0698911,11.1105606 35.0698911,12.4819691 L35.0698911,28.501584 L43.3064542,28.501584 L43.3064542,10.592394 C43.3064542,7.06832757 42.3154885,4.42594434 40.3371378,2.66524432 C38.3569968,0.904544298 35.9122567,0.0219723023 32.9975464,0.0219723023" id="m"></path>
                    <path d="M65.46058,19.768743 C64.2467141,20.9561712 62.7633987,21.5489965 61.0079482,21.5489965 C59.2892001,21.5489965 57.8139413,20.9463945 56.5821719,19.7411904 C55.348612,18.5368751 54.7318321,16.8401683 54.7318321,14.6510697 C54.7318321,12.4637488 55.348612,10.7777075 56.5821719,9.59027927 C57.8139413,8.40285109 59.2892001,7.81002579 61.0079482,7.81002579 C62.7633987,7.81002579 64.2467141,8.39307436 65.46058,9.56361546 C66.6744458,10.7314902 67.2813787,12.4273083 67.2813787,14.6510697 C67.2813787,16.8774976 66.6744458,18.5839812 65.46058,19.768743 M61.0079482,0.0215279055 C56.824766,0.0215279055 53.313865,1.40537946 50.4743499,4.16774982 C47.6366252,6.93012017 46.2159724,10.4230788 46.2159724,14.6510697 C46.2159724,18.8790607 47.6366252,22.381796 50.4743499,25.1646087 C53.313865,27.9465325 56.824766,29.334828 61.0079482,29.334828 C65.2278328,29.334828 68.7467905,27.9563092 71.5666116,25.1912725 C74.3864327,22.4297909 75.7972384,18.91639 75.7972384,14.6510697 C75.7972384,10.3884159 74.3864327,6.88301412 71.5666116,4.13841963 C68.7467905,1.39560273 65.2278328,0.0215279055 61.0079482,0.0215279055" id="o"></path>
                    <path d="M95.0714765,0.133515893 C93.5380309,0.133515893 92.037707,0.47836779 90.5615531,1.16273882 C89.0853991,1.84888745 87.9941731,2.80434051 87.2851895,4.02643164 L87.2851895,0.857882636 L79.0486264,0.857882636 L79.0486264,28.5020284 L87.5644861,28.5020284 L87.5644861,12.6503955 C87.5644861,11.2389913 87.9843261,10.0817821 88.8257965,9.17432389 C89.6645814,8.26419929 90.7763966,7.81002579 92.1567662,7.81002579 C93.6508237,7.81002579 94.7823329,8.24642342 95.5486081,9.11655231 C96.3130929,9.98934757 96.6944402,11.1474456 96.6944402,12.5935127 L96.6944402,28.5020284 L105.211195,28.5020284 L105.211195,11.1474456 C105.211195,7.92201378 104.351821,5.27874176 102.633968,3.22029589 C100.91522,1.16273882 98.3952846,0.133515893 95.0714765,0.133515893" id="n"></path>
                    <path d="M116.583847,11.3707994 C116.695744,10.1833712 117.235539,9.1097086 118.20681,8.1444788 C119.178082,7.1801378 120.484152,6.69663411 122.13039,6.69663411 C123.95835,6.69663411 125.331558,7.16058434 126.245539,8.08759601 C127.162204,9.01549648 127.657239,10.1087125 127.731539,11.3707994 L116.583847,11.3707994 Z M122.017597,0.0217945435 C118.244408,0.0217945435 114.985053,1.37542712 112.240427,4.08358107 C109.496696,6.79084622 108.122593,10.2944704 108.122593,14.5962312 C108.122593,19.0819722 109.534294,22.6629214 112.35322,25.3301909 C115.173041,28.0010155 118.5989,29.3350946 122.635272,29.3350946 C125.996678,29.3350946 128.79591,28.5120718 131.038339,26.8598046 C133.278083,25.2110926 134.751551,23.1064294 135.464116,20.5475928 L128.349215,18.5442521 C127.489841,20.9564378 125.621597,22.1616419 122.744484,22.1616419 C121.064229,22.1616419 119.607769,21.6505856 118.376895,20.6320282 C117.143335,19.612582 116.488958,18.3407184 116.416448,16.8208814 L135.798018,16.8208814 C135.910811,16.4858063 135.968103,15.6156774 135.968103,14.2069396 C135.968103,9.7567503 134.724696,6.27978993 132.242358,3.77872488 C129.757335,1.27410466 126.35117,0.0217945435 122.017597,0.0217945435 L122.017597,0.0217945435 Z" id="e"></path>
                    <polygon id="y" points="151.766441 15.6529178 144.986338 0.858060395 135.463399 0.858060395 147.171476 24.774606 140.840753 39.1268443 149.803309 39.1268443 166.947821 0.858060395 157.927079 0.858060395"></polygon>
                </g>
            </g>
        </g>
    </g>
</svg>
