<?xml version="1.0" encoding="utf-8"?>
<!-- Generator: Adobe Illustrator 21.0.2, SVG Export Plug-In . SVG Version: 6.00 Build 0)  -->
<svg version="1.1" id="Layer_1" xmlns="http://www.w3.org/2000/svg" xmlns:xlink="http://www.w3.org/1999/xlink" x="0px" y="0px"
	 width="315px" height="138px" viewBox="0 0 315 138" style="enable-background:new 0 0 315 138;" xml:space="preserve">
<style type="text/css">
	.st0{fill:#FFFFFF;}
</style>
<title>Money Circle Logo</title>
<g id="circle">
	<path class="st0" d="M314.4,62.1c-8.5-91.2-150.3-76.7-141.9,13.1C180.9,165.5,322.8,152.4,314.4,62.1z M200.4,83
		c-2.3,1.9-5.3,2.8-8.8,2.8c-4.2,0-7.7-1.4-10.6-4.1c-2.9-2.8-4.4-6.2-4.4-10.5c0-4.3,1.4-7.8,4.2-10.5c2.8-2.8,6.3-4.2,10.4-4.2
		c3.6,0,6.6,0.9,8.9,2.8c2.3,1.9,3.8,4.1,4.5,6.8l-7.6,2.3c-0.3-1.2-1-2.2-1.9-3c-0.9-0.8-2.2-1.2-3.7-1.2c-1.8,0-3.4,0.6-4.6,1.8
		c-1.2,1.2-1.8,2.9-1.8,5.1c0,2.1,0.6,3.8,1.9,5c1.2,1.2,2.8,1.8,4.6,1.8c1.5,0,2.8-0.4,3.8-1.2c1-0.8,1.7-1.8,2-2.9l7.5,2.3
		C204.2,78.8,202.7,81.1,200.4,83z M216.4,85h-8.5V57.3h8.5V85z M215.6,52.4c-1,1-2.2,1.4-3.6,1.4c-1.3,0-2.5-0.5-3.5-1.4
		c-1-1-1.5-2.1-1.5-3.5c0-1.4,0.5-2.5,1.5-3.5c1-1,2.1-1.5,3.5-1.5c1.4,0,2.6,0.5,3.6,1.5c1,1,1.5,2.1,1.5,3.5
		C217.1,50.2,216.6,51.4,215.6,52.4z M239.3,65.7c-0.8-0.2-1.7-0.3-2.7-0.3c-1.9,0-3.5,0.6-4.7,1.8c-1.2,1.2-1.8,3.1-1.8,5.7V85
		h-8.5V57.3h8.2v3.7c0.7-1.4,1.7-2.4,3.1-3.1c1.4-0.6,2.8-0.9,4.1-0.9c0.9,0,1.6,0.1,2.2,0.3V65.7z M263.6,83
		c-2.3,1.9-5.3,2.8-8.8,2.8c-4.2,0-7.7-1.4-10.6-4.1c-2.9-2.8-4.3-6.2-4.3-10.5c0-4.3,1.4-7.8,4.2-10.5c2.8-2.8,6.3-4.2,10.5-4.2
		c3.6,0,6.6,0.9,8.9,2.8c2.3,1.9,3.8,4.1,4.5,6.8l-7.6,2.3c-0.3-1.2-1-2.2-1.9-3c-0.9-0.8-2.2-1.2-3.7-1.2c-1.8,0-3.4,0.6-4.6,1.8
		c-1.2,1.2-1.8,2.9-1.8,5.1c0,2.1,0.6,3.8,1.9,5c1.2,1.2,2.8,1.8,4.6,1.8c1.5,0,2.8-0.4,3.8-1.2c1-0.8,1.7-1.8,2-2.9l7.5,2.3
		C267.4,78.8,265.9,81.1,263.6,83z M279.6,85h-8.5V44.7h8.5V85z M310.5,73.3h-19.4c0.1,1.5,0.7,2.8,2,3.8c1.2,1,2.7,1.5,4.4,1.5
		c2.9,0,4.8-1.2,5.6-3.6l7.1,2c-0.7,2.5-2.2,4.7-4.4,6.3c-2.2,1.6-5,2.5-8.4,2.5c-4,0-7.5-1.3-10.3-4c-2.8-2.7-4.2-6.2-4.2-10.7
		c0-4.3,1.4-7.8,4.1-10.5c2.8-2.7,6-4.1,9.8-4.1c4.3,0,7.7,1.3,10.2,3.8c2.5,2.5,3.7,6,3.7,10.4C310.7,72.1,310.6,73,310.5,73.3z"/>
	<path class="st0" d="M296.8,63.2c-1.7,0-3,0.5-3.9,1.5c-1,1-1.5,2-1.6,3.2h11.2c-0.1-1.3-0.6-2.3-1.5-3.3
		C300,63.6,298.7,63.2,296.8,63.2z"/>
</g>
<polygon id="y" class="st0" points="151.8,72.1 145,57.3 135.5,57.3 147.2,81.2 140.8,95.6 149.8,95.6 166.9,57.3 157.9,57.3 "/>
<path id="e" class="st0" d="M116.6,67.8c0.1-1.2,0.7-2.3,1.6-3.2c1-1,2.3-1.4,3.9-1.4c1.8,0,3.2,0.5,4.1,1.4c0.9,0.9,1.4,2,1.5,3.3
	H116.6z M122,56.5c-3.8,0-7,1.4-9.8,4.1c-2.7,2.7-4.1,6.2-4.1,10.5c0,4.5,1.4,8.1,4.2,10.7c2.8,2.7,6.2,4,10.3,4
	c3.4,0,6.2-0.8,8.4-2.5c2.2-1.6,3.7-3.8,4.4-6.3l-7.1-2c-0.9,2.4-2.7,3.6-5.6,3.6c-1.7,0-3.1-0.5-4.4-1.5c-1.2-1-1.9-2.3-2-3.8h19.4
	c0.1-0.3,0.2-1.2,0.2-2.6c0-4.5-1.2-7.9-3.7-10.4C129.8,57.7,126.4,56.5,122,56.5L122,56.5z"/>
<path id="n" class="st0" d="M95.1,56.6c-1.5,0-3,0.3-4.5,1c-1.5,0.7-2.6,1.6-3.3,2.9v-3.2H79V85h8.5V69.1c0-1.4,0.4-2.6,1.3-3.5
	c0.8-0.9,2-1.4,3.3-1.4c1.5,0,2.6,0.4,3.4,1.3c0.8,0.9,1.1,2,1.1,3.5V85h8.5V67.6c0-3.2-0.9-5.9-2.6-7.9
	C100.9,57.6,98.4,56.6,95.1,56.6"/>
<path id="o" class="st0" d="M65.5,76.2C64.2,77.4,62.8,78,61,78c-1.7,0-3.2-0.6-4.4-1.8c-1.2-1.2-1.9-2.9-1.9-5.1
	c0-2.2,0.6-3.9,1.9-5.1c1.2-1.2,2.7-1.8,4.4-1.8c1.8,0,3.2,0.6,4.5,1.8c1.2,1.2,1.8,2.9,1.8,5.1C67.3,73.3,66.7,75.1,65.5,76.2
	 M61,56.5c-4.2,0-7.7,1.4-10.5,4.1c-2.8,2.8-4.3,6.3-4.3,10.5s1.4,7.7,4.3,10.5c2.8,2.8,6.4,4.2,10.5,4.2c4.2,0,7.7-1.4,10.6-4.1
	c2.8-2.8,4.2-6.3,4.2-10.5c0-4.3-1.4-7.8-4.2-10.5C68.7,57.9,65.2,56.5,61,56.5"/>
<path id="m" class="st0" d="M33,56.5c-3.7,0-6.6,1.4-8.6,4.3c-1.5-2.9-4.2-4.3-8.2-4.3c-1.6,0-3.1,0.4-4.7,1.1
	c-1.6,0.7-2.7,1.7-3.3,2.9v-3.2H0V85h8.5V69.1c0-1.3,0.4-2.5,1.2-3.4c0.8-0.9,1.9-1.4,3.4-1.4c1.5,0,2.6,0.4,3.3,1.3
	c0.8,0.9,1.1,2,1.1,3.4v16H26V69c0-1.3,0.4-2.4,1.2-3.3c0.8-0.9,2-1.4,3.4-1.4c1.5,0,2.6,0.4,3.3,1.3c0.7,0.9,1.1,2,1.1,3.4v16h8.2
	V67.1c0-3.5-1-6.2-3-7.9C38.4,57.4,35.9,56.5,33,56.5"/>
</svg>
