<?xml version="1.0" encoding="UTF-8" standalone="no"?>
<svg width="1704px" height="218px" viewBox="0 0 1704 218" version="1.1" xmlns="http://www.w3.org/2000/svg" xmlns:xlink="http://www.w3.org/1999/xlink">
    <!-- Generator: Sketch 3.7.1 (28215) - http://www.bohemiancoding.com/sketch -->
    <title>cloud</title>
    <desc>Created with Sketch.</desc>
    <defs></defs>
    <g id="Symbols" stroke="none" stroke-width="1" fill="none" fill-rule="evenodd">
        <g id="Clouds" transform="translate(0.000000, -118.000000)" fill="#FFFFFF">
            <path d="M1700.04056,336.000545 C1702.58834,327.923964 1703.96251,319.322997 1703.96251,310.396714 C1703.96251,263.461592 1665.99588,225.411569 1619.1612,225.411569 C1616.65591,225.411569 1614.19087,225.574008 1611.74106,225.787686 C1607.12318,165.494392 1556.87813,118 1495.5306,118 C1464.14104,118 1435.67124,130.4544 1414.71078,150.672086 C1404.70702,146.809522 1393.84931,144.670557 1382.48685,144.670557 C1348.52673,144.670557 1318.98105,163.588729 1303.75676,191.480306 C1297.92051,190.164439 1291.87322,189.407843 1285.63991,189.407843 C1254.54624,189.407843 1227.49824,206.710345 1213.51735,232.222024 C1202.10593,226.004635 1189.02577,222.47022 1175.1232,222.47022 C1162.0822,222.47022 1149.80595,225.648141 1138.91016,231.165624 C1121.5276,205.588533 1092.23975,188.789702 1059.0335,188.789702 C1011.03156,188.789702 971.226489,223.889655 963.73455,269.871945 C963.30159,269.863224 962.882773,269.806533 962.447638,269.806533 C944.000298,269.806533 927.415232,277.796375 915.950017,290.51142 C915.801146,290.510419 915.652155,290.509918 915.503048,290.509918 C910.562859,290.509918 905.770099,291.108663 901.144599,292.149996 C889.07864,270.077525 865.662315,255.10631 838.747337,255.10631 C829.742053,255.10631 821.136813,256.799016 813.208369,259.855722 C796.596229,243.856114 774.032583,234.000114 749.154894,234.000114 C700.534121,234.000114 660.712575,271.585604 657.052696,319.299722 C655.111107,319.130624 653.157448,319.002075 651.171888,319.002075 C642.180598,319.002075 633.601702,320.768894 625.762983,323.974491 C616.654533,313.07077 602.960781,306.13478 587.647978,306.13478 C587.303113,306.13478 586.97118,306.179643 586.62804,306.186545 C580.690329,269.797682 549.142953,242.020741 511.099186,242.020741 C484.781686,242.020741 461.569694,255.31478 447.793205,275.555643 C439.157788,271.18929 429.428288,268.674388 419.092688,268.674388 C408.074256,268.674388 397.707618,271.471408 388.663537,276.391643 C377.583029,256.202545 356.146229,242.509918 331.503048,242.509918 C326.562859,242.509918 321.770099,243.108663 317.144599,244.149996 C305.07864,222.077525 281.662315,207.10631 254.747337,207.10631 C245.742053,207.10631 237.136813,208.799016 229.208369,211.855722 C212.596229,195.856114 190.032583,186.000114 165.154894,186.000114 C116.534121,186.000114 76.7125748,223.585604 73.0526965,271.299722 C71.1111073,271.130624 69.1574478,271.002075 67.1718883,271.002075 C30.8076887,271.002075 1.18902463,299.90196 8.21565038e-15,336.000533 L1700.04056,336.000545 Z" id="cloud"></path>
        </g>
    </g>
</svg>