<?xml version="1.0" encoding="UTF-8" standalone="no"?>
<svg width="1440px" height="218px" viewBox="0 0 1440 218" version="1.1" xmlns="http://www.w3.org/2000/svg" xmlns:xlink="http://www.w3.org/1999/xlink">
    <!-- Generator: Sketch 3.7.1 (28215) - http://www.bohemiancoding.com/sketch -->
    <title>Combined Shape</title>
    <desc>Created with Sketch.</desc>
    <defs></defs>
    <g id="Page-1" stroke="none" stroke-width="1" fill="none" fill-rule="evenodd">
        <g id="Desktop-HD" transform="translate(0.000000, -569.000000)" fill="#FFFFFF">
            <g id="Clouds" transform="translate(0.000000, 569.000000)">
                <path d="M1440,24.5355496 C1420.26636,9.15771024 1395.46885,0 1368.5306,0 C1337.14104,0 1308.67124,12.4544 1287.71078,32.6720863 C1277.70702,28.8095216 1266.84931,26.6705569 1255.48685,26.6705569 C1221.52673,26.6705569 1191.98105,45.5887294 1176.75676,73.4803059 C1170.92051,72.1644392 1164.87322,71.4078431 1158.63991,71.4078431 C1127.54624,71.4078431 1100.49824,88.7103451 1086.51735,114.222024 C1075.10593,108.004635 1062.02577,104.47022 1048.1232,104.47022 C1035.0822,104.47022 1022.80595,107.648141 1011.91016,113.165624 C994.527604,87.5885333 965.239746,70.789702 932.033496,70.789702 C884.031563,70.789702 844.226489,105.889655 835.447638,151.806533 C817.000298,151.806533 800.415232,159.796375 788.950017,172.51142 C788.801146,172.510419 788.652155,172.509918 788.503048,172.509918 C783.562859,172.509918 778.770099,173.108663 774.144599,174.149996 C762.07864,152.077525 738.662315,137.10631 711.747337,137.10631 C702.742053,137.10631 694.136813,138.799016 686.208369,141.855722 C669.596229,125.856114 647.032583,116.000114 622.154894,116.000114 C573.534121,116.000114 533.712575,153.585604 530.052696,201.299722 C528.111107,201.130624 526.157448,201.002075 524.171888,201.002075 C515.180598,201.002075 506.601702,202.768894 498.762983,205.974491 C489.654533,195.07077 475.960781,188.13478 460.647978,188.13478 C460.303113,188.13478 459.97118,188.179643 459.62804,188.186545 C453.690329,151.797682 422.142953,124.020741 384.099186,124.020741 C357.781686,124.020741 334.569694,137.31478 320.793205,157.555643 C312.157788,153.18929 302.428288,150.674388 292.092688,150.674388 C281.074256,150.674388 270.707618,153.471408 261.663537,158.391643 C250.583029,138.202545 229.146229,124.509918 204.503048,124.509918 C199.562859,124.509918 194.770099,125.108663 190.144599,126.149996 C178.07864,104.077525 154.662315,89.1063098 127.747337,89.1063098 C118.742053,89.1063098 110.136813,90.7990157 102.208369,93.8557216 C85.5962289,77.8561137 63.0325829,68.0001137 38.1548938,68.0001137 C24.5474407,68.0001137 11.6292023,70.9440621 -3.04185848e-06,76.2300706 L-5.68434189e-14,218.000545 L1440,218.000545 L1440,24.5355496 Z" id="Combined-Shape"></path>
            </g>
        </g>
    </g>
</svg>