<?xml version="1.0" encoding="UTF-8"?>
<svg width="92px" height="92px" viewBox="0 0 92 92" version="1.1" xmlns="http://www.w3.org/2000/svg" xmlns:xlink="http://www.w3.org/1999/xlink">
    <!-- Generator: Sketch 56.3 (81716) - https://sketch.com -->
    <title>Group 28</title>
    <desc>Created with Sketch.</desc>
    <defs>
        <polygon id="path-1" points="0.100525243 0.444304348 6.95805928 0.444304348 6.95805928 10.8511633 0.100525243 10.8511633"></polygon>
    </defs>
    <g id="Page-1" stroke="none" stroke-width="1" fill="none" fill-rule="evenodd">
        <g id="Custom-Preset-2-Copy-5" transform="translate(-924.000000, -195.000000)">
            <g id="Group-28" transform="translate(924.000000, 195.000000)">
                <path d="M7.82546269,45.9828656 C7.91094044,45.9838084 7.96823872,45.9272406 7.96917804,45.8419175 L8.01332589,42.2814456 C8.01567418,42.1249413 8.14483014,41.9981352 8.3007566,42 L9.71959348,42.0179339 C9.87551994,42.0198195 10.0018579,42.1499254 10,42.3064297 L9.93281822,47.7185544 C9.93093959,47.8750587 9.80178363,48.0018648 9.64538751,48 L0.280406597,47.882601 C0.124010476,47.8802441 -0.00185787306,47.7506095 0,47.5941052 L0.0178677638,46.1700108 C0.0197463959,46.0130351 0.148902351,45.8867003 0.304828814,45.8885859 L7.82546269,45.9828656 Z" id="Fill-1" fill="#000000"></path>
                <path d="M9.45907068,28.9615258 C9.54979403,29.0307966 9.61311137,29.0003 9.65044025,28.9288509 L10.2174612,27.8362022 C10.2543175,27.7651888 10.2406145,27.7007103 10.1253203,27.678927 L6.7383152,26.8838378 C6.69342604,26.8786098 6.67452534,26.8847091 6.65609716,26.9204337 L6.64381171,26.9443953 C6.62538352,26.9801199 6.63199877,26.9975465 6.66460247,27.026736 L9.45907068,28.9615258 Z M12.5162586,31.2749087 C12.6197399,31.3494075 12.648091,31.4788001 12.5923339,31.5855381 L11.9445125,32.8319766 C11.8457563,33.0223624 11.6671447,33.0310757 11.5636634,32.9561412 L4.10403041,27.048955 C4,26.9740205 3.97267055,26.8450636 4.0279551,26.7378899 L4.85438812,25.1472758 C4.91014518,25.0401021 5.03677985,24.979109 5.16435957,25.0065559 L14.8263964,26.6747185 C14.9544486,26.7021654 15.05982,26.8363503 14.9610639,27.0263004 L14.3127699,28.2727389 C14.2574854,28.3799126 14.1369934,28.4287071 14.0027985,28.4134588 L12.4850724,28.1956261 C12.3697782,28.1738429 12.2549564,28.1812492 12.1991994,28.2879872 L11.2617248,30.0933843 C11.2064402,30.2001223 11.2588896,30.2815917 11.362371,30.3565262 L12.5162586,31.2749087 Z" id="Fill-3" fill="#000000"></path>
                <path d="M15.3063106,13.3899934 C15.1916478,13.4877987 15.0201015,13.4711903 14.9246985,13.3530857 L14.0620401,12.279072 C13.967085,12.1609674 13.9827616,11.9842719 14.0978722,11.8864665 L18.5804709,8.0637529 C18.6951337,7.96594753 18.86668,7.98255599 18.9616351,8.10066059 L19.8247414,9.17467426 C19.9196965,9.29277885 19.9040199,9.4694744 19.7889092,9.56727977 L18.3816026,10.7672409 C18.3193443,10.8207571 18.31173,10.8991859 18.3636865,10.9637744 L22.938105,16.6549396 C23.0330601,16.7730442 23.0169357,16.9492784 22.9022729,17.0475451 L21.8595581,17.9360976 C21.7448953,18.033903 21.5737969,18.0177559 21.4783939,17.8991899 L16.9039754,12.2080247 C16.8524667,12.1438976 16.7763235,12.1365161 16.7136173,12.1900322 L15.3063106,13.3899934 Z" id="Fill-5" fill="#000000"></path>
                <path d="M33.8373722,5.61694335 C33.859051,5.69967082 33.9278576,5.74032547 34.0112739,5.71905269 L37.1099285,4.9069053 C37.2612089,4.86672339 37.4181445,4.95890542 37.4577319,5.11112397 L37.8173172,6.49243635 C37.8573759,6.64418216 37.7654766,6.80112799 37.613725,6.84083717 L34.5145991,7.65298456 C34.4321254,7.67473007 34.3915954,7.74469387 34.4132742,7.82742134 L34.8454364,9.48575256 C34.8666439,9.5680073 34.9363931,9.60913467 35.0188668,9.58738916 L38.2829402,8.73175076 C38.4342205,8.69204158 38.5906849,8.78422362 38.6307435,8.93596943 L38.9908001,10.3177545 C39.0303875,10.4695004 38.9384883,10.6264462 38.7867367,10.6661554 L33.7318059,11.9907403 C33.5805255,12.0304495 33.4240611,11.9387402 33.3844738,11.7865217 L31.0092313,2.66806361 C30.9696439,2.51631779 31.0610719,2.35937197 31.2128235,2.31966278 L36.2126147,1.00925966 C36.363895,0.969550478 36.5203594,1.06125979 36.5599468,1.21347833 L36.9200034,2.59479071 C36.9595908,2.74700925 36.8676915,2.90348235 36.7164112,2.94366427 L33.5070061,3.78464808 C33.4245324,3.80639359 33.3840025,3.87588467 33.40521,3.95908486 L33.8373722,5.61694335 Z" id="Fill-7" fill="#000000"></path>
                <g id="Group-11" transform="translate(49.000000, 0.000000)">
                    <mask id="mask-2" fill="white">
                        <use xlink:href="#path-1"></use>
                    </mask>
                    <g id="Clip-10"></g>
                    <path d="M3.36371875,6.51147391 C1.80184375,5.79647391 0.64028125,4.76295217 0.93909375,2.9269087 C1.21296875,1.24821304 2.69128125,0.170213043 4.40934375,0.504995652 C6.15365625,0.844082609 7.18790625,2.41086522 6.91446875,4.09003913 L6.87990625,4.30382174 C6.85409375,4.45973478 6.71584375,4.56543043 6.57278125,4.53721304 L5.25809375,4.28134348 C5.11459375,4.25360435 5.01878125,4.10295217 5.04415625,3.94608261 L5.07871875,3.73277826 C5.17146875,3.16364783 4.83634375,2.58447391 4.09434375,2.44003913 C3.36503125,2.29799565 2.89165625,2.64616957 2.79934375,3.21577826 C2.71140625,3.75621304 3.13709375,4.19143043 3.79115625,4.46547391 C5.53546875,5.21634348 6.74165625,6.30295217 6.41965625,8.28056087 C6.11821875,10.1304739 4.58434375,11.1386478 2.73590625,10.7789957 C0.93909375,10.4289087 -0.13759375,8.79564783 0.14546875,7.05956087 L0.21503125,6.63247391 C0.24040625,6.47608261 0.37821875,6.37086522 0.52128125,6.39860435 L1.83640625,6.65447391 C1.97903125,6.68221304 2.07571875,6.83334348 2.05034375,6.98973478 L1.98078125,7.41682174 C1.87403125,8.07108261 2.24634375,8.67225652 3.05353125,8.82912609 C3.83403125,8.98121304 4.42334375,8.58234348 4.53184375,7.91325652 C4.63159375,7.30108261 4.30084375,6.94334348 3.36371875,6.51147391" id="Fill-9" fill="#000000" mask="url(#mask-2)"></path>
                </g>
                <path d="M68.7626749,8.61364366 C68.6353316,8.52734692 68.603964,8.35610889 68.6938534,8.23366692 L69.506603,7.11587565 C69.5960242,6.99298186 69.773462,6.96316205 69.9008053,7.04900697 L74.879833,10.4231643 C75.0071763,10.509461 75.0385439,10.6811509 74.9486545,10.8035929 L74.1359049,11.9213841 C74.0464837,12.0438261 73.8690459,12.0740977 73.7417026,11.9873492 L72.1784705,10.9287457 C72.1087126,10.8813051 72.0300594,10.8948596 71.9813694,10.9617282 L67.6718301,16.8841244 C67.5824089,17.0070181 67.4054392,17.036838 67.278096,16.950993 L66.1198341,16.1657379 C65.9929591,16.079893 65.9615914,15.9086549 66.0510126,15.7857611 L70.3605519,9.86336503 C70.4092419,9.79649635 70.3951967,9.72013955 70.325907,9.67315075 L68.7626749,8.61364366 Z" id="Fill-12" fill="#000000"></path>
                <path d="M88.0137306,41.0910248 C87.9317075,41.0982728 87.8818592,41.1541246 87.8900162,41.2312938 L88.1714324,44.1168268 C88.1850274,44.2579485 88.0740017,44.3841479 87.9240037,44.3973648 L86.56088,44.5150372 C86.4104289,44.5278277 86.2767449,44.4229457 86.2631499,44.2818241 L85.9812806,41.3958647 C85.9735767,41.3191218 85.914212,41.2726497 85.8326421,41.2794713 L84.1967124,41.4210193 C84.1146893,41.4282673 84.0652942,41.484119 84.0725449,41.5612883 L84.3693687,44.6007335 C84.3829637,44.7418551 84.2714848,44.8676282 84.12194,44.880845 L82.7583632,44.9989438 C82.6083652,45.0117343 82.474228,44.9068524 82.460633,44.7657307 L82.0011226,40.0584065 C81.9875276,39.9172848 82.0990065,39.7915117 82.2490045,39.7782949 L91.2461645,39.0010599 C91.3966156,38.9882694 91.5302996,39.092725 91.5443478,39.234273 L91.9988734,43.8900089 C92.0124684,44.0311306 91.9014427,44.1569037 91.7514447,44.1696942 L90.3878678,44.287793 C90.238323,44.3010098 90.1037327,44.1957015 90.0905909,44.0550062 L89.7982987,41.0662966 C89.7910481,40.9895537 89.7312301,40.9426552 89.6496602,40.9499032 L88.0137306,41.0910248 Z" id="Fill-14" fill="#000000"></path>
                <path d="M87.4605314,59.3502826 C87.4895615,59.2741237 87.4548206,59.2050908 87.3734413,59.1783684 L85.7468071,58.637685 C85.6659037,58.6105172 85.5926148,58.6434748 85.5635847,58.7191883 L85.1305136,59.8606806 C84.9472912,60.3425747 85.2133206,60.8881573 85.7420481,61.0640798 C86.2569744,61.2351032 86.8447138,60.973669 87.0274603,60.4917748 L87.4605314,59.3502826 Z M80.1911234,56.7907211 C80.042166,56.7412847 79.9636421,56.5862947 80.0164673,56.4473382 L80.4976045,55.1784691 C80.5504297,55.0390672 80.7160437,54.9660259 80.8650011,55.0154624 L89.8091094,57.9883304 C89.9580668,58.0377669 90.0365907,58.1927569 89.9832896,58.3317134 L88.924407,61.1219783 C88.3709326,62.5801312 86.6262746,63.3573079 85.0681704,62.8393385 C83.4962651,62.3169154 82.6796167,60.6886299 83.2330911,59.2300317 L83.6661622,58.0885395 C83.6951922,58.012826 83.6599755,57.9437931 83.5790721,57.9166253 L80.1911234,56.7907211 Z" id="Fill-16" fill="#000000"></path>
                <path d="M77.3455263,75.8714477 C77.4072914,75.930997 77.487916,75.9295679 77.5473236,75.8676366 L78.5346214,74.8295733 C78.6435354,74.7157151 78.8250586,74.7123803 78.9377445,74.821951 L79.9132551,75.7699758 C80.025941,75.8800228 80.0292414,76.0629583 79.9207989,76.1772929 L76.3653008,79.9117482 C76.2563869,80.0260829 76.0753351,80.029894 75.9626493,79.9198469 L74.9871386,78.9718222 C74.8739813,78.8622515 74.8706809,78.6788397 74.9791233,78.564505 L75.9668927,77.5273945 C76.0263003,77.4649869 76.0244143,77.3835234 75.9631208,77.3239741 L71.753196,73.232223 C71.6919024,73.1721974 71.6112778,73.1736265 71.5518702,73.2360342 L70.4655597,74.3774751 C70.3571172,74.4918097 70.175594,74.4951445 70.0624366,74.3850974 L69.086926,73.4370726 C68.9742401,73.3275019 68.9704682,73.1440901 69.0793822,73.0302318 L72.8324342,69.0880686 C72.9408766,68.9737339 73.1223999,68.9703992 73.2350857,69.0799699 L74.2105963,70.0279946 C74.3237537,70.1380417 74.3270541,70.3214536 74.2186117,70.4348354 L73.1318296,71.5762763 C73.0728935,71.6386839 73.074308,71.7201474 73.1356016,71.7796967 L77.3455263,75.8714477 Z" id="Fill-18" fill="#000000"></path>
                <path d="M59.8477406,83.1615215 C61.6161077,82.9090715 63.1773273,83.1405617 63.8130721,84.8392429 C64.3939159,86.3926023 63.587009,88.0992017 61.8661612,88.7559444 C60.1185549,89.4220026 58.4083183,88.6748996 57.8270132,87.1210743 L57.7531966,86.9240515 C57.6987569,86.7791955 57.7721121,86.6157085 57.9160543,86.5612129 L59.2327566,86.0591075 C59.3762375,86.004146 59.5377112,86.0777385 59.5921508,86.2225945 L59.6659674,86.4200831 C59.8629652,86.9464087 60.4525747,87.2482309 61.1958149,86.9655055 C61.9261371,86.6865063 62.1831109,86.1373577 61.9856517,85.611032 C61.7988036,85.1107897 61.1976603,84.9785096 60.4705675,85.1056662 C58.5199658,85.4279824 56.8909273,85.1764639 56.2062791,83.3464342 C55.5659207,81.635177 56.4577166,79.9560584 58.3095887,79.2499435 C60.1088665,78.5633913 61.8910743,79.3435643 62.4917563,80.9495563 L62.6398507,81.3449992 C62.6942904,81.4898553 62.6213965,81.6528765 62.4774543,81.7078379 L61.1602907,82.2099433 C61.0172712,82.264439 60.8553362,82.1908465 60.8008965,82.0455248 L60.6537248,81.6510134 C60.4267389,81.0450402 59.7928395,80.7455469 58.9840872,81.0534241 C58.2020934,81.3519859 57.8657668,82.0068654 58.0973662,82.6254146 C58.3091273,83.1917969 58.7857053,83.3105695 59.8477406,83.1615215" id="Fill-20" fill="#000000"></path>
                <path d="M43.7206236,89.0321664 C43.9462389,87.8811301 44.060445,86.3329633 44.0049735,85.162208 C43.9798015,84.5486277 43.5803132,84.0203433 42.7235343,83.9588936 C41.8662892,83.898361 41.394548,84.3647371 41.2794096,84.9682286 C41.0533281,86.1188063 40.9395881,87.6674317 40.9950597,88.8386455 C41.0206978,89.4517673 41.4192538,89.9800517 42.2764989,90.0410428 C43.133744,90.102034 43.6054851,89.6356579 43.7206236,89.0321664 M39.0139332,88.6978614 C38.9584617,87.5266476 39.0717355,85.9780222 39.2982831,84.8274445 C39.6166618,83.1825173 40.9274683,81.8723536 42.8661754,82.0099277 C44.8058147,82.1479603 45.9115163,83.6300916 45.9860999,85.3029922 C46.0415715,86.4737474 45.9278315,88.0219142 45.70175,89.1734091 C45.3833713,90.8178777 44.0720987,92.1280414 42.1333916,91.9900087 C40.1946846,91.8524347 39.0885168,90.3703034 39.0139332,88.6978614" id="Fill-22" fill="#000000"></path>
                <path d="M27.33512,79.0042756 C26.7719671,78.703683 26.1411987,78.9365866 25.781355,79.421988 C25.0885287,80.3455866 24.4772113,81.4050085 24.029375,82.4581958 C23.7913317,83.0090596 23.9196157,83.6467612 24.4827687,83.9473538 L25.4622659,84.4697169 C25.5349756,84.5089053 25.6113903,84.4879751 25.6521448,84.4171689 L28.3688022,79.7096662 C28.4090935,79.63886 28.3873269,79.5658271 28.313691,79.5266387 L27.33512,79.0042756 Z M30.8562155,78.7277304 C30.9909832,78.7998726 31.0396107,78.9641966 30.9650485,79.0937854 L26.4829807,86.8615433 C26.4084185,86.9911321 26.2366012,87.0383363 26.1022967,86.9661941 L23.5319849,85.5950465 C22.0263843,84.791685 21.660057,83.0411228 22.3033296,81.5377145 C22.751629,80.4840818 23.3629464,79.4246599 24.0553097,78.5015067 C25.0417536,77.1802352 26.7803032,76.5536667 28.2859038,77.3565829 L30.8562155,78.7277304 Z" id="Fill-24" fill="#000000"></path>
                <path d="M12.1059854,71.3568061 C12.1735354,71.3080342 12.1855649,71.2310018 12.136059,71.1639974 L10.2770456,68.664777 C10.186362,68.543075 10.213197,68.3694104 10.3371929,68.2800712 L11.4647229,67.4655341 C11.5887188,67.3761948 11.764534,67.4026319 11.8556802,67.5252455 L13.7146936,70.0244659 C13.7646621,70.0910146 13.8423909,70.1028657 13.9099409,70.0540937 L15.2627919,69.0768316 C15.3308046,69.0280596 15.3428341,68.9514831 15.2933282,68.8849345 L13.3348405,66.252161 C13.2436942,66.1295474 13.2714545,65.9567944 13.3954504,65.8674551 L14.5225178,65.0529181 C14.6465137,64.9635788 14.8227915,64.9900159 14.9130124,65.1121737 L17.9462857,69.1894173 C18.0369693,69.3111192 18.0101343,69.484328 17.8861384,69.5736673 L10.44407,74.9472418 C10.320074,75.0365811 10.1442589,75.0096882 10.0531127,74.8875304 L7.05407708,70.8554123 C6.96293083,70.7332545 6.98976577,70.5600457 7.11376169,70.4707064 L8.24129173,69.6561694 C8.36575032,69.5668301 8.54110276,69.5932672 8.63224901,69.7158808 L10.5578871,72.3039847 C10.6073929,72.3705333 10.6855844,72.3823844 10.7531344,72.3336125 L12.1059854,71.3568061 Z" id="Fill-26" fill="#000000"></path>
            </g>
        </g>
    </g>
</svg>