<?xml version="1.0" encoding="UTF-8"?>
<svg width="192px" height="239px" viewBox="0 0 192 239" version="1.1" xmlns="http://www.w3.org/2000/svg" xmlns:xlink="http://www.w3.org/1999/xlink">
    <!-- Generator: Sketch 56.3 (81716) - https://sketch.com -->
    <title>Group 35</title>
    <desc>Created with Sketch.</desc>
    <defs>
        <polygon id="path-1" points="0 0.174737778 30.9101 0.174737778 30.9101 31.651597 0 31.651597"></polygon>
        <polygon id="path-3" points="0.8547 0.875095238 20.1979105 0.875095238 20.1979105 22.6631048 0.8547 22.6631048"></polygon>
        <polygon id="path-5" points="0.0494181818 0.732981818 23.6585455 0.732981818 23.6585455 23.4598909 0.0494181818 23.4598909"></polygon>
        <polygon id="path-7" points="0.174984615 0.449717105 10.8664077 0.449717105 10.8664077 16.7763158 0.174984615 16.7763158"></polygon>
        <polygon id="path-9" points="0.758836364 0.449717105 11.4230182 0.449717105 11.4230182 16.7763158 0.758836364 16.7763158"></polygon>
        <polygon id="path-11" points="0.400076923 0.449717105 10.8946923 0.449717105 10.8946923 16.7763158 0.400076923 16.7763158"></polygon>
    </defs>
    <g id="Page-1" stroke="none" stroke-width="1" fill="none" fill-rule="evenodd">
        <g id="Custom-Preset-2-Copy-5" transform="translate(-234.000000, -209.000000)">
            <g id="Group-35" transform="translate(234.000000, 209.000000)">
                <path d="M167.192671,125.823485 L145.292666,125.823485 C145.40544,127.506046 146.082082,128.965499 147.550331,130.08757 C148.904711,131.20964 150.597412,131.770131 152.516755,131.770131 C155.790479,131.770131 157.93537,130.423864 158.838654,127.730242 L166.853255,129.975471 C166.063839,132.781191 164.370043,135.249529 161.88683,137.045277 C159.403618,138.839936 156.242668,139.849908 152.403981,139.849908 C147.888652,139.849908 143.937191,138.391543 140.776242,135.361627 C137.615292,132.33171 136.035365,128.40392 136.035365,123.354059 C136.035365,118.529483 137.615292,114.601693 140.663468,111.571776 C143.824417,108.542948 147.437557,106.971397 151.727339,106.971397 C156.58099,106.971397 160.418582,108.43085 163.24121,111.235482 C166.063839,114.041202 167.418218,117.968992 167.418218,122.905666 C167.418218,124.477218 167.305445,125.486102 167.192671,125.823485 L167.192671,125.823485 Z M122.713829,138.952034 L132.309451,138.952034 L132.309451,93.7307488 L122.713829,93.7307488 L122.713829,138.952034 Z M114.248133,136.707894 C111.651053,138.839936 108.264555,139.849908 104.313095,139.849908 C99.5722177,139.849908 95.620757,138.279445 92.3470336,135.249529 C89.0733103,132.107514 87.4933829,128.291822 87.4933829,123.466157 C87.4933829,118.641581 89.0733103,114.713791 92.2342599,111.684963 C95.3952095,108.542948 99.3455754,106.971397 104.087547,106.971397 C108.151782,106.971397 111.538279,107.981369 114.134265,110.113411 C116.731346,112.245454 118.424047,114.713791 119.214558,117.743707 L110.634994,120.325231 C110.296673,118.977876 109.506162,117.855806 108.490103,116.957932 C107.474044,116.061146 106.006891,115.611665 104.313095,115.611665 C102.280977,115.611665 100.474408,116.285342 99.1200279,117.631609 C97.765648,118.977876 97.0879106,120.885722 97.0879106,123.354059 C97.0879106,125.711386 97.765648,127.618144 99.2328016,128.965499 C100.587181,130.311766 102.393751,130.985444 104.425868,130.985444 C106.119664,130.985444 107.586818,130.537051 108.71565,129.638088 C109.844483,128.741303 110.634994,127.618144 110.973315,126.385064 L119.440105,128.965499 C118.537915,131.995416 116.844119,134.575851 114.248133,136.707894 L114.248133,136.707894 Z M86.8156455,117.295315 C85.9123607,117.071118 84.896302,116.957932 83.7674697,116.957932 C81.6225787,116.957932 79.8160089,117.631609 78.4616291,118.977876 C77.1072492,120.325231 76.4295118,122.457274 76.4295118,125.374003 L76.4295118,138.952034 L66.8338892,138.952034 L66.8338892,107.869271 L76.0900957,107.869271 L76.0900957,112.021257 C76.8817017,110.450794 78.0094392,109.327636 79.5904614,108.542948 C81.1714837,107.869271 82.7514111,107.532976 84.2185647,107.532976 C85.2346233,107.532976 86.0251344,107.645074 86.7028718,107.869271 L86.8156455,117.295315 Z M60.060895,102.371017 C58.9320626,103.493087 57.5765879,103.942568 55.9966605,103.942568 C54.5295069,103.942568 53.1740321,103.380989 52.0451998,102.371017 C50.9163674,101.248947 50.3524987,100.014778 50.3524987,98.4432266 C50.3524987,96.8716751 50.9163674,95.6385949 52.0451998,94.5154362 C53.1740321,93.3933658 54.4167332,92.8328748 55.9966605,92.8328748 C57.5765879,92.8328748 58.9320626,93.3933658 60.060895,94.5154362 C61.1897274,95.6385949 61.7535961,96.8716751 61.7535961,98.4432266 C61.7535961,99.9026799 61.1897274,101.248947 60.060895,102.371017 L60.060895,102.371017 Z M51.3685573,138.952034 L60.9641799,138.952034 L60.9641799,107.869271 L51.3685573,107.869271 L51.3685573,138.952034 Z M42.9006722,136.707894 C40.3046862,138.839936 36.9181891,139.849908 32.9667283,139.849908 C28.2258514,139.849908 24.2743906,138.279445 21.0006673,135.249529 C17.7269439,132.107514 16.0331479,128.291822 16.0331479,123.466157 C16.0331479,118.641581 17.6141701,114.713791 20.7751198,111.684963 C23.9360694,108.542948 27.8875301,106.971397 32.5156333,106.971397 C36.5798678,106.971397 39.9663649,107.981369 42.5623509,110.113411 C45.1594318,112.245454 46.8521329,114.713791 47.642644,117.743707 L39.0630801,120.325231 C38.7247588,118.977876 37.9342477,117.855806 36.9181891,116.957932 C35.9021305,116.061146 34.4349768,115.611665 32.7411808,115.611665 C30.7090636,115.611665 28.9024938,116.285342 27.548114,117.631609 C26.1937341,118.977876 25.5170916,120.885722 25.5170916,123.354059 C25.5170916,125.711386 26.1937341,127.618144 27.6619826,128.965499 C29.0163625,130.311766 30.8218373,130.985444 32.8539546,130.985444 C34.5477506,130.985444 36.0149042,130.537051 37.1437366,129.638088 C38.2725689,128.741303 39.0630801,127.618144 39.4014013,126.385064 L47.8681915,128.965499 C47.1904542,131.995416 45.497753,134.575851 42.9006722,136.707894 L42.9006722,136.707894 Z M171.595227,113.255426 C161.999604,10.9173854 1.92219582,27.1879498 11.4050447,127.955527 C20.8878935,229.283595 181.078075,214.583494 171.595227,113.255426 L171.595227,113.255426 Z" id="Fill-1" fill="#FFFFFF"></path>
                <path d="M150.892968,114 C149.071354,114 147.678905,114.531366 146.714583,115.59513 C145.643228,116.659926 145.107032,117.722658 145,119 L157,119 C156.892968,117.616385 156.356772,116.552621 155.392449,115.488857 C154.321095,114.425093 152.928646,114 150.892968,114" id="Fill-3" fill="#FFFFFF"></path>
                <g id="Group-7" transform="translate(0.000000, 25.000000)">
                    <mask id="mask-2" fill="white">
                        <use xlink:href="#path-1"></use>
                    </mask>
                    <g id="Clip-6"></g>
                    <polygon id="Fill-5" fill="#FFFFFF" mask="url(#mask-2)" points="27.5727897 18.8819378 18.542169 8.50439704 23.5898241 22.5282193 20.834031 25.050797 7.9358931 18.449997 16.8510655 28.6948859 13.6227897 31.651597 -0.000106896552 15.9964859 4.43503103 11.937997 17.8366517 18.6725452 12.6158241 4.45029333 17.2882724 0.174737778 30.9101 15.8287526"></polygon>
                </g>
                <path d="M57.0170074,24.0021719 C59.7746539,23.0807935 62.1367814,20.2299018 60.7469715,16.0677756 C59.3549643,11.9045513 55.7436559,11.0172167 52.987108,11.9374969 C50.2008962,12.8665625 47.8486567,15.7471052 49.2395653,19.9081332 C50.6293752,24.0713576 54.2318943,24.9323357 57.0170074,24.0021719 M51.5401676,7.60625 C57.1389591,5.73713687 63.2552213,8.22782346 65.3701494,14.5544749 C67.4751895,20.855868 64.0825152,26.5203131 58.4837237,28.3883281 C52.856367,30.2673249 46.7390062,27.7766383 44.633966,21.4763433 C42.5201366,15.1485937 45.9128109,9.48414862 51.5401676,7.60625" id="Fill-8" fill="#FFFFFF"></path>
                <g id="Group-12" transform="translate(89.000000, 0.000000)">
                    <mask id="mask-4" fill="white">
                        <use xlink:href="#path-3"></use>
                    </mask>
                    <g id="Clip-11"></g>
                    <polygon id="Fill-10" fill="#FFFFFF" mask="url(#mask-4)" points="14.2416474 22.4342 6.17764737 8.26729524 5.53659474 22.0366286 0.8547 21.8197714 1.83175263 0.874438095 7.55701579 1.13839048 14.8926474 14.2341524 15.4872789 1.50091429 20.1979105 1.71667619 19.2197526 22.6631048"></polygon>
                </g>
                <polygon id="Fill-13" fill="#FFFFFF" points="133 29.2116256 141.996712 10 154 15.7750422 152.109244 19.8113501 144.329193 16.0683495 142.616003 19.7269132 149.674826 23.1232779 147.911217 26.8896098 140.852393 23.4943561 139.128243 27.179584 146.9346 30.9359168 145.030691 35"></polygon>
                <g id="Group-17" transform="translate(168.000000, 33.000000)">
                    <mask id="mask-6" fill="white">
                        <use xlink:href="#path-5"></use>
                    </mask>
                    <g id="Clip-16"></g>
                    <polygon id="Fill-15" fill="#FFFFFF" mask="url(#mask-6)" points="10.9639636 0.732981818 14.5606909 4.82934545 11.5563273 13.1518909 20.2377818 11.2929818 23.6588727 15.1908 9.67450909 17.7075273 3.12250909 23.4598909 0.0494181818 19.9624364 6.6036 14.2078909"></polygon>
                </g>
                <path d="M17.3336997,226.199548 C17.1996043,226.199548 17.1116729,226.291125 17.1116729,226.427925 L17.1116729,229.171849 C17.1116729,229.308649 17.1996043,229.400226 17.3336997,229.400226 L19.3330402,229.400226 C20.1782809,229.400226 20.8883271,228.691351 20.8883271,227.799322 C20.8883271,226.931034 20.1782809,226.199548 19.3330402,226.199548 L17.3336997,226.199548 Z M17.1116729,238.543245 C17.1116729,238.795365 16.9105298,239 16.6676193,239 L14.4440536,239 C14.200044,239 14,238.795365 14,238.543245 L14,223.456755 C14,223.205766 14.200044,223 14.4440536,223 L19.3330402,223 C21.8896461,223 24,225.171849 24,227.799322 C24,230.451668 21.8896461,232.599774 19.3330402,232.599774 L17.3336997,232.599774 C17.1996043,232.599774 17.1116729,232.691351 17.1116729,232.828151 L17.1116729,238.543245 Z" id="Fill-18" fill="#FFFFFF"></path>
                <g id="Group-22" transform="translate(37.000000, 222.000000)">
                    <mask id="mask-8" fill="white">
                        <use xlink:href="#path-7"></use>
                    </mask>
                    <g id="Clip-21"></g>
                    <path d="M3.40844615,5.44682237 C3.19090769,7.34701974 3.19090769,9.879125 3.40844615,11.7782039 C3.51829231,12.7735987 4.19244615,13.5878092 5.52029231,13.5878092 C6.84813846,13.5878092 7.52336923,12.7735987 7.63321538,11.7782039 C7.85075385,9.879125 7.85075385,7.34701974 7.63321538,5.44682237 C7.52336923,4.45254605 6.84813846,3.63833553 5.52029231,3.63833553 C4.19244615,3.63833553 3.51829231,4.45254605 3.40844615,5.44682237 M10.7024462,5.44682237 C10.9210615,7.34701974 10.9210615,9.879125 10.7024462,11.7782039 C10.3976769,14.4926118 8.52490769,16.7764276 5.52029231,16.7764276 C2.51567692,16.7764276 0.643984615,14.4926118 0.338138462,11.7782039 C0.1206,9.879125 0.1206,7.34701974 0.338138462,5.44682237 C0.643984615,2.73353289 2.51567692,0.449717105 5.52029231,0.449717105 C8.52490769,0.449717105 10.3976769,2.73353289 10.7024462,5.44682237" id="Fill-20" fill="#FFFFFF" mask="url(#mask-8)"></path>
                </g>
                <path d="M65.9948977,235.800452 C66.9938772,235.800452 67.6673828,234.954777 67.7747999,233.948559 C67.9917826,232.02883 67.9917826,229.97117 67.7747999,228.051441 C67.6673828,227.045223 66.9938772,226.199548 65.9948977,226.199548 L64.2568881,226.199548 C64.1269134,226.199548 64.0399055,226.291125 64.0399055,226.427925 L64.0399055,235.572075 C64.0399055,235.708875 64.1269134,235.800452 64.2568881,235.800452 L65.9948977,235.800452 Z M61.4339653,239 C61.194425,239 61,238.794234 61,238.543245 L61,223.456755 C61,223.204635 61.194425,223 61.4339653,223 L65.9948977,223 C68.6652881,223 70.5343466,225.308649 70.837263,228.051441 C71.0542457,229.97117 71.0542457,232.02883 70.837263,233.948559 C70.5343466,236.691351 68.6652881,239 65.9948977,239 L61.4339653,239 Z" id="Fill-23" fill="#FFFFFF"></path>
                <g id="Group-27" transform="translate(84.000000, 222.000000)">
                    <mask id="mask-10" fill="white">
                        <use xlink:href="#path-9"></use>
                    </mask>
                    <g id="Clip-26"></g>
                    <path d="M8.33465455,11.5981382 C8.35756364,11.3487303 8.5332,11.1462961 8.77538182,11.1462961 L10.9812,11.1462961 C11.2233818,11.1462961 11.4230182,11.3487303 11.4230182,11.5981382 C11.4230182,14.6279408 9.2172,16.7764276 6.17356364,16.7764276 C3.12992727,16.7764276 1.23283636,14.4926118 0.924109091,11.7782039 C0.703745455,9.879125 0.703745455,7.34701974 0.924109091,5.44682237 C1.23283636,2.73353289 3.12992727,0.449717105 6.17356364,0.449717105 C9.2172,0.449717105 11.4230182,2.59820395 11.4230182,5.62800658 C11.4230182,5.87741447 11.2233818,6.07984868 10.9812,6.07984868 L8.77538182,6.07984868 C8.5332,6.07984868 8.35756364,5.87741447 8.33465455,5.62800658 C8.24629091,4.45254605 7.43029091,3.63833553 6.17356364,3.63833553 C4.82738182,3.63833553 4.14338182,4.45254605 4.03429091,5.44682237 C3.81283636,7.34701974 3.81283636,9.879125 4.03429091,11.7782039 C4.14338182,12.7735987 4.82738182,13.5878092 6.17356364,13.5878092 C7.43029091,13.5878092 8.24629091,12.7735987 8.33465455,11.5981382" id="Fill-25" fill="#FFFFFF" mask="url(#mask-10)"></path>
                </g>
                <path d="M112.368648,232.508197 C112.326537,232.691351 112.409732,232.760317 112.534011,232.760317 L114.44442,232.760317 C114.569726,232.760317 114.652921,232.691351 114.611837,232.508197 L113.614522,227.022612 C113.592953,226.953646 113.572411,226.931034 113.509757,226.931034 L113.468673,226.931034 C113.407047,226.931034 113.385478,226.953646 113.364936,227.022612 L112.368648,232.508197 Z M110.997468,238.656303 C110.956384,238.8632 110.789994,239 110.603061,239 L108.422525,239 C108.090772,239 107.966492,238.749011 108.007577,238.543245 L111.724656,223.342566 C111.76574,223.1368 111.93213,223 112.119062,223 L114.90148,223 C115.088412,223 115.254802,223.1368 115.296913,223.342566 L118.992423,238.543245 C119.033508,238.749011 118.909228,239 118.577475,239 L116.396939,239 C116.210006,239 116.065185,238.8632 116.002532,238.656303 L115.35854,236.302431 C115.317456,236.119276 115.23426,235.959864 115.046301,235.959864 L111.891046,235.959864 C111.704114,235.959864 111.619891,236.097795 111.578807,236.302431 L110.997468,238.656303 Z" id="Fill-28" fill="#FFFFFF"></path>
                <g id="Group-32" transform="translate(132.000000, 222.000000)">
                    <mask id="mask-12" fill="white">
                        <use xlink:href="#path-11"></use>
                    </mask>
                    <g id="Clip-31"></g>
                    <path d="M5.47346154,10.0144539 C2.75207692,9.38254605 0.596076923,8.13774342 0.596076923,5.22090132 C0.596076923,2.55234868 2.70792308,0.449717105 5.58223077,0.449717105 C8.49961538,0.449717105 10.5899231,2.55234868 10.5899231,5.22090132 L10.5899231,5.56090132 C10.5899231,5.80919079 10.3939231,6.01274342 10.1548462,6.01274342 L7.95576923,6.01274342 C7.71561538,6.01274342 7.51961538,5.80919079 7.51961538,5.56090132 L7.51961538,5.22090132 C7.51961538,4.31609868 6.82284615,3.525375 5.58223077,3.525375 C4.36315385,3.525375 3.68792308,4.20425658 3.68792308,5.10794079 C3.68792308,5.96800658 4.49346154,6.51044079 5.62638462,6.73636184 C8.65146154,7.36938816 10.8946923,8.68129605 10.8946923,11.8240592 C10.8946923,14.7632697 8.67407692,16.7764276 5.58223077,16.7764276 C2.57761538,16.7764276 0.400076923,14.5832039 0.400076923,11.8240592 L0.400076923,11.1462961 C0.400076923,10.8968882 0.596076923,10.6933355 0.835153846,10.6933355 L3.03423077,10.6933355 C3.27438462,10.6933355 3.47038462,10.8968882 3.47038462,11.1462961 L3.47038462,11.8240592 C3.47038462,12.8641908 4.23284615,13.6772829 5.58223077,13.6772829 C6.88746154,13.6772829 7.73823077,12.8865592 7.73823077,11.8240592 C7.73823077,10.8521513 7.10607692,10.3991908 5.47346154,10.0144539" id="Fill-30" fill="#FFFFFF" mask="url(#mask-12)"></path>
                </g>
                <path d="M156.425129,226.199548 C156.191518,226.199548 156,225.993782 156,225.742793 L156,223.456755 C156,223.205766 156.191518,223 156.425129,223 L165.573819,223 C165.808482,223 166,223.205766 166,223.456755 L166,225.742793 C166,225.993782 165.808482,226.199548 165.573819,226.199548 L162.702094,226.199548 C162.574766,226.199548 162.48953,226.291125 162.48953,226.427925 L162.48953,238.543245 C162.48953,238.795365 162.298011,239 162.063348,239 L159.935599,239 C159.701989,239 159.51047,238.795365 159.51047,238.543245 L159.51047,226.427925 C159.51047,226.291125 159.426286,226.199548 159.296854,226.199548 L156.425129,226.199548 Z" id="Fill-33" fill="#FFFFFF"></path>
            </g>
        </g>
    </g>
</svg>